<?xml version="1.0" encoding="utf-8"?>
<!-- Generator: Adobe Illustrator 23.0.4, SVG Export Plug-In . SVG Version: 6.00 Build 0)  -->
<svg version="1.1" id="Layer_1" xmlns="http://www.w3.org/2000/svg" xmlns:xlink="http://www.w3.org/1999/xlink" x="0px" y="0px"
	 viewBox="0 0 50 48" style="enable-background:new 0 0 50 48;" xml:space="preserve">
<style type="text/css">
	.st0{fill-rule:evenodd;clip-rule:evenodd;fill:#FA7C91;}
</style>
<title>frontend</title>
<desc>Created with Sketch.</desc>
<g id="Website">
	<path id="frontend" class="st0" d="M47.6,44.4c0,0.7-0.5,1.2-1.2,1.2H3.6c-0.7,0-1.2-0.5-1.2-1.2V18v-4.8V12H6h7.1h3.6h3.6h15h12.4
		v6V44.4z M3.6,2.4H6h7.1h3.6h3.6h26.2c0.7,0,1.2,0.5,1.2,1.2c0,0,0,0,0,0v6H20.2h-3.6h-3.6H6H2.4v-6c0,0,0,0,0,0
		C2.4,2.9,2.9,2.4,3.6,2.4L3.6,2.4z M46.4,0c2,0,3.6,1.6,3.6,3.6c0,0,0,0,0,0l0,0v40.8c0,2-1.6,3.6-3.6,3.6l0,0H3.6
		c-2,0-3.6-1.6-3.6-3.6l0,0L0,3.6l0,0C0,2,1,0.7,2.4,0.2C2.8,0.1,3.2,0,3.6,0l0,0H46.4z M27.4,17c-0.2,0.1-0.4,0.3-0.4,0.5L26.8,18
		l-4,10.3l-3.6,9.3c-0.2,0.6,0.1,1.3,0.7,1.6c0.6,0.2,1.3-0.1,1.5-0.7l1.4-3.6L27.4,23l1.8-4.6c0.1-0.1,0.1-0.3,0.1-0.4
		c0-0.5-0.3-0.9-0.8-1.1C28.1,16.7,27.7,16.8,27.4,17z M14.8,20.8l-1.7,1.7l-4.2,4.2c-0.5,0.5-0.5,1.2,0,1.7l4.2,4.2l1.7,1.7
		c0.5,0.5,1.2,0.5,1.7,0c0.5-0.5,0.5-1.2,0-1.7l-3.4-3.4l-1.7-1.7l1.7-1.7l3.4-3.4c0.5-0.5,0.5-1.2,0-1.7
		C16,20.3,15.2,20.3,14.8,20.8z M33.7,20.8c-0.5,0.5-0.5,1.2,0,1.7l1.5,1.5l3.5,3.6l-3.5,3.6l-1.5,1.5c-0.5,0.5-0.5,1.2,0,1.7
		c0.4,0.4,1,0.4,1.5,0.1c0.1,0,0.1-0.1,0.2-0.1l5.9-5.9c0.5-0.5,0.5-1.2,0-1.7l-5.9-5.9c-0.1-0.1-0.1-0.1-0.2-0.1
		C34.7,20.3,34.1,20.3,33.7,20.8z M6,4.8C5.3,4.8,4.8,5.3,4.8,6S5.3,7.2,6,7.2S7.1,6.7,7.1,6S6.6,4.8,6,4.8z M9.5,4.8
		C8.9,4.8,8.3,5.3,8.3,6s0.5,1.2,1.2,1.2c0.7,0,1.2-0.5,1.2-1.2S10.2,4.8,9.5,4.8z M13.1,4.8c-0.7,0-1.2,0.5-1.2,1.2
		s0.5,1.2,1.2,1.2c0.7,0,1.2-0.5,1.2-1.2S13.8,4.8,13.1,4.8z"/>
</g>
</svg>
