<svg id="Layer_1" data-name="Layer 1" xmlns="http://www.w3.org/2000/svg" xmlns:xlink="http://www.w3.org/1999/xlink" viewBox="0 0 11042.97 6198.12"><defs><style>.cls-1{fill:url(#linear-gradient);}.cls-2{fill:url(#linear-gradient-2);}.cls-3{fill:url(#linear-gradient-3);}.cls-4{fill:url(#linear-gradient-4);}.cls-5{fill:#ce8505;}.cls-6{fill:#b77306;}.cls-7{fill:#e2900e;}.cls-8{fill:#60af90;}.cls-58,.cls-59,.cls-9{fill:#70c19e;}.cls-10{fill:#539b7c;}.cls-11{fill:#287456;}.cls-12{fill:#fdc800;}.cls-13,.cls-56,.cls-57{fill:#fca800;}.cls-14{fill:#ffd550;}.cls-15{fill:#ef9978;}.cls-16{fill:#e5896c;}.cls-17{fill:#c9c9c9;}.cls-18{fill:#bfbfbf;}.cls-19{fill:#333;}.cls-20{fill:#232323;}.cls-21{fill:#3f3f3f;}.cls-22{fill:#d67254;}.cls-23{fill:#775537;}.cls-24{fill:#6b492f;}.cls-25{fill:#825b3f;}.cls-26{fill:#fddcbb;}.cls-27{fill:#fde8d6;}.cls-28{fill:#fcc99f;}.cls-29{fill:#a0a0a0;}.cls-30{fill:#d3d3d3;}.cls-31{fill:#f4f4f4;}.cls-32{fill:#e5e5e5;}.cls-33{fill:#fff;}.cls-34{fill:#ffabab;}.cls-35{fill:#f4a992;}.cls-36{fill:#ffebf2;}.cls-37{fill:#fff8fb;}.cls-38{fill:#f9cdda;}.cls-39{fill:#5e2901;}.cls-40{fill:#4c2002;}.cls-41{fill:#723105;}.cls-42,.cls-60{fill:#fa7c91;}.cls-43{fill:#56aeec;}.cls-44{fill:#1c0929;}.cls-45{fill:#8dfcff;}.cls-46,.cls-52,.cls-61{fill:#38e0eb;}.cls-47{fill:#e0fa09;}.cls-48{fill:#ff6c27;}.cls-49{fill:#ff49a5;}.cls-50{opacity:0.17;}.cls-51,.cls-54,.cls-55{fill:#606060;}.cls-52,.cls-54,.cls-56,.cls-58{opacity:0.3;}.cls-53,.cls-60,.cls-62{opacity:0.3;}.cls-55,.cls-57,.cls-59,.cls-61{opacity:0.66;}.cls-62{fill:#f9587b;}.cls-63{fill:none;stroke:#34f8eb;stroke-linecap:round;stroke-linejoin:round;}</style><linearGradient id="linear-gradient" x1="5525.15" x2="5525.15" y2="5332.93" gradientUnits="userSpaceOnUse"><stop offset="0.01" stop-color="#d6ffff" stop-opacity="0"/><stop offset="0.22" stop-color="#e5ffff"/><stop offset="0.45" stop-color="#e9ffff"/><stop offset="0.68" stop-color="#f5ffff"/><stop offset="0.81" stop-color="#fff"/><stop offset="1" stop-color="#fff" stop-opacity="0"/></linearGradient><linearGradient id="linear-gradient-2" x1="5525.15" y1="-7.26" x2="5525.15" y2="5399.55" gradientUnits="userSpaceOnUse"><stop offset="0.01" stop-color="#d6ffff" stop-opacity="0"/><stop offset="0.22" stop-color="#e5ffff"/><stop offset="0.46" stop-color="#ecffff"/><stop offset="0.8" stop-color="#feffff"/><stop offset="0.81" stop-color="#fff"/><stop offset="1" stop-color="#fff" stop-opacity="0"/></linearGradient><linearGradient id="linear-gradient-3" x1="8789.16" y1="2701.01" x2="11042.97" y2="2701.01" gradientUnits="userSpaceOnUse"><stop offset="0.01" stop-color="#d6ffff" stop-opacity="0"/><stop offset="0.81" stop-color="#fff"/><stop offset="1" stop-color="#fff"/></linearGradient><linearGradient id="linear-gradient-4" x1="2224.56" y1="2704.64" x2="-2.14" y2="2704.64" xlink:href="#linear-gradient-3"/></defs><title>Artboard 2</title><rect class="cls-1" x="7.34" width="11035.63" height="5332.93"/><rect class="cls-2" x="7.34" y="-7.26" width="11035.63" height="5406.8"/><rect class="cls-3" x="8789.16" y="2.48" width="2253.81" height="5397.07"/><rect class="cls-4" x="-2.14" y="9.73" width="2226.7" height="5389.81"/><ellipse class="cls-5" cx="500.15" cy="4747.92" rx="492.81" ry="122.42"/><path class="cls-6" d="M556,4826.39c-272.17,0-492.81-54.81-492.81-122.42a33.33,33.33,0,0,1,3.3-14.23c-37.71,17.3-59.11,37.12-59.11,58.18,0,67.6,220.63,122.41,492.81,122.41,252.79,0,461.12-47.28,489.51-108.18C906.32,4800.4,743.35,4826.39,556,4826.39Z"/><ellipse class="cls-7" cx="541.98" cy="4722.6" rx="76.4" ry="404.18" transform="translate(-4191.61 5158.28) rotate(-88.71)"/><ellipse class="cls-8" cx="506.71" cy="4484.41" rx="406.59" ry="512.2"/><path class="cls-9" d="M310.11,4697.05s-20-138.12-26-294.65,66.08-359.88,58.5-365.18-153.9,156.39-158.16,342.43C179,4619.1,322.61,4802.39,310.11,4697.05Z"/><path class="cls-9" d="M758.56,4680.06s18.5-169.35,0-319.15S704.25,4087,707.23,4076.83s126,117,151.92,287.66S816.72,4738,796,4754.75,754.05,4735.66,758.56,4680.06Z"/><path class="cls-10" d="M506.71,4996.62c124.14,0,235.28-70.09,309.86-180.56-125.71-11.11-94-103.19-92.53-379.21,1-191.39-41.14-347.39-69.56-429.76-45.8-22.52-95.64-34.88-147.77-34.88q-3.12,0-6.22.06c7.19,139.84,29.55,411.22,29.14,421.19-.55,13.45-106.08,433-106.08,433S202.12,4823.71,156,4525.63c-31-200.37,57.06-369.75,118.69-461.91-105.53,92.53-174.6,246.45-174.6,420.69C100.12,4767.29,282.16,4996.62,506.71,4996.62Z"/><path class="cls-8" d="M402.83,3989.09c-44.62,107.84-73.65,283.34-73.65,481.52,0,219.32,35.55,410.85,88.44,513.66a327.55,327.55,0,0,0,178.19,0c52.88-102.81,88.44-294.34,88.44-513.66,0-198.18-29-373.68-73.66-481.52a328.08,328.08,0,0,0-207.76,0Z"/><path class="cls-10" d="M402.18,4673.5c-59-228.12-1.06-551,26.06-691.75q-12.86,3.16-25.41,7.34c-44.62,107.84-73.65,283.34-73.65,481.52,0,219.32,35.55,410.85,88.44,513.66a327.55,327.55,0,0,0,178.19,0c23-44.67,42.68-106.09,57.62-179.26C536.41,4815.16,431.85,4788.28,402.18,4673.5Z"/><path class="cls-9" d="M423.55,4549.58s1.14-478.17,54.78-501,111.27-24.45,142,127.39,10.72,526.84-18.47,561.76S432.5,4737.68,423.55,4549.58Z"/><path class="cls-11" d="M306.84,4352.66s-46.69-51.81-45.42-60.12S378.8,4329.64,381,4368s-122.17,44.77-128.57,35.18S306.84,4352.66,306.84,4352.66Z"/><path class="cls-11" d="M699.19,4327.36s66.1-60.83,55.15-68.12-123.28,35.28-120,83.53,154.91,76,161.4,64.39S699.19,4327.36,699.19,4327.36Z"/><path class="cls-11" d="M87.74,4517.44S2,4507.4,0,4491.56s171.13-3.09,175.38,16.22S14.31,4608.22,6.2,4595.86,87.74,4517.44,87.74,4517.44Z"/><path class="cls-11" d="M353.43,4666s-63.6-36.84-61.86-56.3,104.61,31.63,112.61,51.44-75.77,104.26-88.28,92.45S353.43,4666,353.43,4666Z"/><path class="cls-11" d="M680.84,4663.25s90.71-32.32,89-48.66-128.94,8-147.36,36.84,88.28,97,100.79,84.81S680.84,4663.25,680.84,4663.25Z"/><path class="cls-11" d="M849.17,4219s38.3-59.5,29.75-66.94-81.44,65.82-73.63,93,102.61,10.78,108-4.47S849.17,4219,849.17,4219Z"/><path class="cls-11" d="M652.08,3967.65s53.18-59.87,69.17-55.78-40.91,100-64,113.05-71.4-90.74-66.94-106.36S652.08,3967.65,652.08,3967.65Z"/><path class="cls-11" d="M375.82,3974.88s42.39-81.81,57.27-80.33-10,145.41-28.63,154.7-102.64-87.76-99.29-101.15S375.82,3974.88,375.82,3974.88Z"/><path class="cls-11" d="M157,4173s-26.68-61.73-22.22-75.12S225,4185,224.31,4210.23s-132.31,10-136.4-3.79S157,4173,157,4173Z"/><path class="cls-12" d="M819.88,5544.86c-10.53,38.77-134.59,65.37-300.61,65.37S232,5584,218.66,5544.86L52,4975l896.39-10.46Z"/><path class="cls-13" d="M319.57,5474.34c-49.88-78.83-114.06-360.42-143.93-500.82L52,4975l166.71,569.9c13.35,39.1,134.59,65.37,300.61,65.37s290.08-26.6,300.61-65.37l8.86-40C662.37,5536.25,370.79,5555.31,319.57,5474.34Z"/><path class="cls-14" d="M337,5163.39s391.33-12.2,452.44-22.26,25.26,270.8,0,303.12-346.67,29.38-393.68,5.87S282.37,5171,337,5163.39Z"/><path class="cls-12" d="M500.15,4870.33c-272.18,0-492.81-54.81-492.81-122.41v241.17c0,67.61,220.63,122.42,492.81,122.42S993,5056.7,993,4989.09V4747.92C993,4815.52,772.32,4870.33,500.15,4870.33Z"/><path class="cls-13" d="M512.15,5111.47q5.11,0,10.19-.09l1.64,0c3.33,0,6.66-.08,10-.14l1.75,0q5.22-.09,10.4-.21h.37c3.72-.09,7.42-.18,11.11-.29h.07c3.35-.1,6.68-.2,10-.32l2.32-.08c3.19-.11,6.38-.23,9.55-.36l.74,0,10-.44,1.41-.06,10-.5.95,0c3.38-.18,6.75-.36,10.11-.56l1.1-.06,9.94-.61.55,0q5.14-.33,10.25-.69h.13c3.42-.24,6.82-.48,10.2-.74l.59-.05,9.77-.77,1.1-.1,9-.77,1.84-.17c2.94-.26,5.88-.53,8.8-.81l1.59-.15q4.58-.43,9.12-.9l.25,0c3.05-.32,6.08-.63,9.1-1l1.18-.13q4.5-.48,8.94-1l1.16-.14q4.61-.53,9.15-1.08l.46-.06c3.18-.39,6.34-.78,9.48-1.19h.13q4.68-.6,9.3-1.23l.76-.1q9.25-1.26,18.26-2.62h.12l8.67-1.34.87-.14,8.29-1.34.84-.14,8.26-1.4.76-.14q4.11-.71,8.14-1.44l.67-.12q8.29-1.51,16.33-3.12l.55-.1q4-.8,7.86-1.61l.57-.12c2.59-.54,5.17-1.08,7.72-1.64l.53-.11c2.56-.56,5.11-1.13,7.62-1.7l.4-.09q11.75-2.68,22.76-5.53l.27-.07q3.62-.94,7.16-1.9l.23-.06q3.49-.94,6.9-1.92l.46-.12c4.66-1.33,9.22-2.67,13.66-4l.06,0q10.05-3.1,19.28-6.38l.3-.1q3-1.08,6-2.17l.07,0c2-.73,3.86-1.45,5.74-2.19l.41-.16q2.72-1.06,5.36-2.14l.38-.16q2.64-1.08,5.21-2.19l.07,0c1.71-.73,3.37-1.48,5-2.22l.46-.21c1.61-.73,3.19-1.46,4.75-2.21l.38-.18q2.37-1.14,4.63-2.28l.26-.13c1.55-.79,3.06-1.58,4.55-2.37l0,0q4.53-2.41,8.63-4.9l.16-.1q2-1.18,3.83-2.39l.29-.19c1.22-.79,2.41-1.58,3.57-2.38l.29-.21c1.14-.79,2.25-1.59,3.33-2.39l.33-.24c1.07-.81,2.12-1.61,3.13-2.42l.21-.18c1-.83,2-1.68,3-2.52h0c1-.84,1.87-1.68,2.75-2.52l.22-.21c.85-.81,1.65-1.62,2.43-2.44.09-.1.2-.2.29-.31.77-.81,1.49-1.62,2.19-2.44l.25-.29c.69-.82,1.35-1.64,2-2.47l.23-.3c.63-.84,1.23-1.69,1.79-2.54l.08-.13c.59-.9,1.14-1.79,1.65-2.69-269.24,93.5-834.54,69.15-891-32.7-26.86-48.44-30.62-111.88-26-165.33-40.6-17.79-63.79-38.36-63.79-60.27v241.17c0,67.61,220.63,122.42,492.81,122.42,3.55,0,7.08,0,10.61,0Z"/><path class="cls-14" d="M161.75,4882.52s148,12.53,364.06,19.1,395.11-51.33,411.21-45.36,19.49,107.92,11.32,126.52-222.6,48.34-428.5,46.55S165.33,4988,146.23,4964.5,120.79,4876.24,161.75,4882.52Z"/><path class="cls-15" d="M2811.66,4160.19s207.72,31.35,310.42,216.42-198.22,210.44-219.74,178.59S2774.9,4205.09,2811.66,4160.19Z"/><path class="cls-16" d="M2991.76,4405.82c-18.67-95-113.13-165.31-116.43-190-1.43-10.75,6.49-22.65,16.17-32.67-46.53-17.91-79.84-22.94-79.84-22.94-33.11,40.45,49.55,302.68,82,377.6C2934,4532.21,3007.46,4485.72,2991.76,4405.82Z"/><path class="cls-15" d="M1866.05,4449.2s154.89-308.15,357.17-370.69,685.54.45,752.62,395.37S2709.69,5625,2684.71,5625s-664.79-192.6-664.79-192.6l-363.1-398.78Z"/><path class="cls-16" d="M2233.82,5207.78c-65.45-17.4-305.69-199.15-309.17-271.56s208.9-489.52,191.77-622.52c-10.59-82.21-35.06-118.7-52.21-134.58-119,112.64-198.16,270.08-198.16,270.08l-208.2,581.51c67.85,71.69,338.25,290.35,399,313.55,67.43,25.77,229.22,40.39,317.45,42.87s219.54-56.79,239.74-79.08,27.12-89.13,27.12-89.13S2299.28,5225.19,2233.82,5207.78Z"/><path class="cls-17" d="M2871.26,5253.73S1656.14,5228,1635.66,5323c-20.08,93.15,179.5,395.37,796.15,708.1Z"/><path class="cls-18" d="M1760.84,5558.57c119.83,132.46,332.61,300.89,671,472.49l21.72-38.43c-91.28-24.8-283.55-116-264.85-162.27,21.2-52.47,136-82.79,136-82.79s220.15-58.26,232.3-60,86-120.71,84.09-147.21,0-136.17-7.42-134.3-189.79,39.27-261.78,10.07c-46.5-18.87-109.39-104.45-148.09-162.67-136.77,2.87-271.61,8.26-377.63,17.81C1819.21,5349.43,1785.34,5461.11,1760.84,5558.57Z"/><path class="cls-19" d="M3008.87,5432.35s-794.43,45.54-928.71,91.08,355,404.58,355,404.58Z"/><path class="cls-20" d="M2391,5894.66c-.9-17-10.83-36.11-34.81-56.3-92.55-77.9-28.74-126.69,0-195.92,18-43.31,18.06-114.64,15.6-162-133.8,13.28-247.86,28.13-291.66,43C1971,5560.45,2273.82,5804.55,2391,5894.66Z"/><path class="cls-21" d="M2343.62,5770.67s101.59-269.58,98.7-275.62-41.68-5-49.32,0-6.59,91.67-17.35,135.74-50.14,79.51-50.93,116.78S2335.83,5791.41,2343.62,5770.67Z"/><path class="cls-15" d="M2121.56,4056.72c-3.71,5.94-43.06,62.17-34.15,103.47s169.27,168.15,458.82,163.38,403.89-255,403.89-255Z"/><path class="cls-16" d="M2139,4169.21c-11.55-28,3.59-74.62,20.71-111.95l-38.1-.54c-3.71,5.94-43.06,62.17-34.15,103.47s169.27,168.15,458.82,163.38c73.2-1.21,135.2-18.11,187-42.68C2413.56,4374.18,2159.16,4218.12,2139,4169.21Z"/><path class="cls-22" d="M2594.84,4121.88s26.95,80.28-11.47,165.16c0,0,59.07-55.05,40.15-160.58l143.37-24.08s39,40.71,37.85,94.05c0,0,22.94-54.08-13.77-120s-459.36-62.42-464.52-62.42-86.8,89.46-86.8,89.46,15.11,40.72-16.43,128.47c0,0,33.83-31,48.17-110.11l141.08,8s21.22,68.25-41.29,157.14c0,0,78-47,71.11-158.28Z"/><path class="cls-23" d="M1741.45,1469.49s400.79-148.29,419.49-472.93S1742.79,472.86,1252.49,688c-497,218-571.79,644.58-406.13,858.68S1383.41,1656.52,1741.45,1469.49Z"/><path class="cls-24" d="M1354,1221c-230.2-195.53-171.35-499.59-171.35-499.59a.15.15,0,0,0,0-.06q-16.14,8.4-31.61,17.11c-38.82,106.76-83.89,282.21-39.86,455.82,69.37,273.58,186.7,330.34,186.7,330.34-61.45,47.12-364.72,151.94-470.26-141.77-38-105.69-35.13-206.78-15-293-74.36,170.17-54.11,343.33,33.7,456.81,165.65,214.1,537.05,109.89,895.09-77.14,0,0,131.62-48.71,247.53-151.39,3-93.6,3.63-186,3.63-186S1584.22,1416.54,1354,1221Z"/><path class="cls-25" d="M1274.34,747.48S1400.61,660,1552.75,676s299.37,238.29,267.46,378.83-273.54,198.52-440.39,77.27C1247.37,1035.81,1204.36,808.33,1274.34,747.48Z"/><path class="cls-25" d="M1018.31,886.41s-120,166.7-66.47,360.73,166.9,235.71,170.32,270.55-146,49.33-246-131.18-15-342.28,30.06-409.92S1060,808.61,1018.31,886.41Z"/><path class="cls-23" d="M1521.67,608.49C1639.14,629,1808,689.31,1872.37,865.64c102.87,281.88-93.51,585.15-93.51,585.15l3.92.91c102.84-48.1,363.17-195,378.16-455.14C2176.12,733.19,1891.45,552.48,1521.67,608.49Z"/><path class="cls-23" d="M1627.9,1482.85s-400.8-40.08-493-368.73c-44.78-159.67-5.05-295.37,47.64-392.71q-32.6,17-62.41,35.17c-84.33,144-172.46,364.11-86.76,566,104.63,246.42,330.94,271,444.75,266.4q46.41-17.45,93.63-38Z"/><path class="cls-24" d="M1872.6,782.44c-67.26-96.65-168.86-151.72-260.93-183.07q-44,2.22-90,9.12C1639.14,629,1808,689.31,1872.37,865.64c102.87,281.88-93.51,585.15-93.51,585.15l3.92.91c67.58-31.6,203.17-105.88,292.46-226.92C1879.74,1201.74,2012.58,983.57,1872.6,782.44Z"/><path class="cls-24" d="M1478.14,1588.94q46.41-17.45,93.63-38l56.13-68.09s-63.72-6.37-146.19-34.87c-115,45.44-339.38,63.28-431.91-172.18-47.1-119.85-41.39-233.82-17.63-327.4-38.21,116.72-51.94,248.95,1.22,374.14C1138,1569,1364.33,1593.49,1478.14,1588.94Z"/><path class="cls-25" d="M1125.41,806.87c-1.19,4.33-65.47,140.66-10,325.2s206,271.5,235.62,291.86-239.85-2.72-298.13-201.7C977.78,965.64,1151.66,710.82,1125.41,806.87Z"/><path class="cls-25" d="M1761.58,633.3s234.83,34,320.86,181.35,18.6,342.72-31.62,356.2-71.62-132.06-80-227.85-56.66-197.17-129.23-242.74S1723.18,625.6,1761.58,633.3Z"/><circle class="cls-26" cx="3695.73" cy="2823.35" r="236.37" transform="translate(-913.96 3440.21) rotate(-45)"/><ellipse class="cls-27" cx="3864.06" cy="2769.78" rx="41.47" ry="104.51" transform="translate(-650.46 1279.22) rotate(-17.36)"/><path class="cls-28" d="M3790.75,2729.78a235.3,235.3,0,0,1,26.65-109.11A235.31,235.31,0,0,0,3695.73,2587c-130.55,0-236.37,105.83-236.37,236.37s105.82,236.36,236.37,236.36a236.32,236.32,0,0,0,209.71-127.26A236.23,236.23,0,0,1,3790.75,2729.78Z"/><path class="cls-26" d="M1118,3578.33s579.89,864.27,1931.86,486.15,442-2130.3,442-2130.3L2744.69,1604s-1138.59,259.46-1196.93,268.4S1021.18,2975.14,1118,3578.33Z"/><path class="cls-27" d="M1877.34,2957.62s44-534.48,351.17-724.95S2738,2260.74,2831,2266.13s316.24-68.11,444.36-40.85c211.47,45,431.6,653.51,308.3,1099.26s-885.28,515-1216.12,409.67C1995.69,3615.86,1829.26,3420,1877.34,2957.62Z"/><path class="cls-28" d="M1589.32,3261.59c-94.12-841.37,620.82-1486.48,734.58-1562.05-330.87,75-741.7,167.53-776.14,172.81-58.35,9-526.58,1102.79-429.76,1706,0,0,579.89,864.27,1931.86,486.15,127.39-35.63,234.69-83.46,324.57-140.88C2661.13,4121.09,1669.6,3979.25,1589.32,3261.59Z"/><path class="cls-23" d="M2394.2,1410.53s430.11-198.43,775.35,64.23c315.9,240.33,460.54,544.87,469.69,678.67a148.25,148.25,0,0,1-.92,32.67c-17.17,109.35-299-293.84-299-293.84l-395.26,41.92Z"/><path class="cls-24" d="M3290.87,1740.11C3228,1592.39,3128.53,1475.3,3063.7,1409c-86.5-42.84-175-62.51-258-68.37-21.27,81.61,107.78,206,107.78,206s78,190.89,157.89,374l268-28.42s281.84,403.19,299,293.84a148.87,148.87,0,0,0,.92-32.67c-2.77-40.47-17.95-96.58-46.51-161.8C3485.21,1854.83,3324.69,1819.59,3290.87,1740.11Z"/><path class="cls-25" d="M3308.35,1719.53s-92.85-156.26-129.26-206.16,165.86,130.49,227.12,211.07,121,154,109.94,157.19S3338.49,1769.69,3308.35,1719.53Z"/><path class="cls-23" d="M2394.19,1410.53l549.86,523.65,338.85-35.94c-15.15-280-181.34-441.95-320.93-529.35C2673.08,1281.87,2394.19,1410.53,2394.19,1410.53Z"/><path class="cls-24" d="M2944.05,1934.18l338.85-35.94A688.15,688.15,0,0,0,3263.31,1767c-157.35-33.14-276.19,77.36-364.57-84.53-67.88-124.37-211.9-267.17-282.75-333.49-131.29,19.85-221.8,61.6-221.8,61.6Z"/><path class="cls-23" d="M2845.87,1998.53l98.18-64.35s-217.56-824.94-976-658.74-1248,895.94-1275.17,1459.5,397.35,988.11,483.47,985.09,207.58-570.2,207.58-570.2-32.64-356,0-514.61,463-659.58,750.93-753.59S2758.27,1818.13,2845.87,1998.53Z"/><path class="cls-24" d="M1951,1334.69s43.75-34.15,88.76-72.29q-35,5-71.71,13c-758.46,166.2-1248,895.94-1275.17,1459.5s397.35,988.11,483.47,985.08c28.85-1,61.65-65.3,92.53-150.37-129.47-32-357.57-146.79-456.19-555C671,2428.25,1042,2009.48,1042,2009.48s53.93,579.3,41.19,592,124.14,350.13,146.42,406.34c20.62,52,106.64,33,145.79,23.14-6.08-106.46-11-261.18,3.09-363.77-144.37-173.08-251.9-630.19-85.22-896.46C1462.73,1500.09,1951,1334.69,1951,1334.69Z"/><path class="cls-23" d="M1968,1275.44a1490.28,1490.28,0,0,0-147.82,40.49c247.26,136.65,372.54,360.45,435.21,534.08,254.86-51.17,514.88-7.1,590.45,148.52l98.18-64.35S2726.49,1109.24,1968,1275.44Z"/><path class="cls-24" d="M2097.49,1316.42c67.43-30.93,230.25-16.77,368.89,3.47-131.6-62.49-295.66-88.87-498.35-44.45a1490.28,1490.28,0,0,0-147.82,40.49c222.26,122.83,345.94,316.07,414.2,480,23.58-19.69,37.8-43.49,34.06-72C2253.25,1608,1969.84,1375,2097.49,1316.42Z"/><path class="cls-25" d="M2296.14,1569.56s108.7-5.51,235.28,23.39,287.7,191.93,314.46,265.55S2912,1822.13,2744.69,1604s-354.3-275.87-491.2-254.54S2207.4,1577.81,2296.14,1569.56Z"/><path class="cls-23" d="M1369.53,2814.91c-100.26-94-192.16-215.86-229-364.71-62.15-251-11.25-538.07,69.5-761.84a1799,1799,0,0,0-211.59,243.52c-43.46,216.46-66,457.37-25,669.63,47.9,248,225.37,438.51,405.35,571.66,3.34-14.86,5.15-23.34,5.15-23.34S1367.82,2974.36,1369.53,2814.91Z"/><path class="cls-24" d="M1369.41,2836c-12.86-10.84-29.25-19.32-49.85-24.39-140.85-34.61-260.21,50.13-315.11-286.47-38.94-238.7-3.75-497.8,20-628.33q-13.25,17.43-26,35.09c-43.46,216.46-66,457.37-25,669.63,38.81,200.91,162.67,364.11,304,489.64,35.42-9,65.86-18.07,80.32-25.81,6.25-3.35,12.62-9.59,18.66-18C1372.81,2988.47,1369.31,2911.39,1369.41,2836Z"/><path class="cls-25" d="M1202.55,2691.7s-63-64.07-103.88-284.78,19.8-505,19.33-528.81-60,31.84-76,63-44.26,316.46-18.8,489.7,82,284.51,126.36,304.31S1223.41,2721.54,1202.55,2691.7Z"/><path class="cls-23" d="M2845.87,1998.53s169.58-94.29,411.06-40.27,369.29,367,428.78,582.24,123,287.47,280.84,282.62c0,0-157.64-58.36-214.92-282.62s-59.83-464.62-326.53-661.39C3198.88,1712.2,2899.77,1900.07,2845.87,1998.53Z"/><path class="cls-24" d="M3966.33,2823l-.74-.3c-5.53-2.21-34.43-14.58-70.16-43.95l0,0c-112.21-33.38-141-87-241.88-395-123.94-378.38-313.93-451.88-509.87-468.83-78.5-6.79-126.1-22.24-165.21-33.31C2914.94,1918,2867,1962,2847.27,1996.06c-.48.83-.95,1.66-1.4,2.47,0,0,169.58-94.29,411.06-40.27s369.29,367,428.78,582.24,123,287.47,280.84,282.62Z"/><path class="cls-25" d="M3049.86,1881.63s133.7-73.23,275.15-26.28c174.8,58,256.95,195.75,313.31,330.75s93.39,328.46,107.46,385.23,89.36,165.7,89.36,165.7-66.45-34.48-109.35-176.63-81-306.26-207.88-481.73c-111.7-154.48-348.1-180.23-383.42-183.59S3049.86,1881.63,3049.86,1881.63Z"/><path class="cls-26" d="M1324.65,2983.41c0-44-48.18-97.37-31.39-135.12a198,198,0,0,0-53.39-7.3c-109.26,0-197.84,88.58-197.84,197.84s88.58,197.83,197.84,197.83a197,197,0,0,0,123.2-43C1304,3138.1,1324.65,3070.86,1324.65,2983.41Z"/><path class="cls-28" d="M1341.81,3168.23a197.46,197.46,0,0,1-70.7,13c-109.26,0-197.84-88.57-197.84-197.83a197.58,197.58,0,0,1,12-68A197,197,0,0,0,1042,3038.83c0,109.26,88.58,197.83,197.84,197.83a197,197,0,0,0,123.2-43A133,133,0,0,1,1341.81,3168.23Z"/><path d="M2186.52,2914.69a121,121,0,0,0-58.84,15.28c-34.5-7.13-89.44-24.73-128.31-67.54,0,0,21.26,66.79,87.4,103.07a142,142,0,0,0-14.63,23.64c-34.61-2.94-80.37-12.85-118.49-41.73,0,0,33.23,61.8,105,85.26A151.49,151.49,0,0,0,2057,3055c0,77.48,58,140.28,129.51,140.28S2316,3132.44,2316,3055,2258.05,2914.69,2186.52,2914.69Z"/><path class="cls-29" d="M2349.58,5806.21s492.9-1370.28,538-1407.28c47.89-39.28,147.26-42.07,147.26-42.07L2472.43,6047.33S2280.42,5998.55,2349.58,5806.21Z"/><path class="cls-17" d="M2414.56,5885.78s511-1456.81,569.28-1515.09,1858-67.23,1923,0S4375.65,5897,4315.14,5948.53s-1712.82,103.1-1810.28,103.1C2434.52,6051.63,2376,5995.29,2414.56,5885.78Z"/><path class="cls-18" d="M2741.7,5765.65c-32-150.58,273.69-1026,423.91-1421.56-103.8,7.15-171.24,16.07-181.77,26.6-58.27,58.28-569.27,1515.08-569.27,1515.08-38.6,109.52,19.95,165.86,90.29,165.86,97.46,0,1749.77-51.55,1810.28-103.1,11.08-9.44,40.12-66.08,79.78-152.72C3835.33,5841.74,2772.33,5909.64,2741.7,5765.65Z"/><path class="cls-30" d="M3326.79,4493.85s1232.7-45,1294.51,0-251,1013.29-337.14,1112.56S3107.93,5752.5,3018,5610.15C2960.21,5518.62,3189.78,4499,3326.79,4493.85Z"/><circle class="cls-31" cx="3702.05" cy="5180.24" r="182.43" transform="translate(-2578.67 4135) rotate(-45)"/><path class="cls-32" d="M3743.85,5306.94A182.51,182.51,0,0,1,3579.61,5045a182.44,182.44,0,1,0,286.67,214.75A181.78,181.78,0,0,1,3743.85,5306.94Z"/><ellipse class="cls-33" cx="3724.75" cy="5129.73" rx="97" ry="131.87" transform="translate(-2548.44 6043.46) rotate(-62.3)"/><circle class="cls-33" cx="2226.7" cy="3014.61" r="50.73" transform="translate(-1479.47 2457.47) rotate(-45)"/><ellipse class="cls-34" cx="1950.98" cy="3261.59" rx="105.04" ry="94.3"/><ellipse class="cls-34" cx="3790.75" cy="3021.05" rx="105.04" ry="94.3"/><path d="M3512.9,2744.06a121.06,121.06,0,0,1,58.85,15.28c34.5-7.13,89.44-24.74,128.31-67.55,0,0-21.26,66.8-87.4,103.08a141.55,141.55,0,0,1,14.63,23.64c34.61-2.94,80.37-12.85,118.49-41.73,0,0-33.23,61.8-105,85.25a151.63,151.63,0,0,1,1.64,22.3c0,77.47-58,140.28-129.52,140.28s-129.51-62.81-129.51-140.28S3441.38,2744.06,3512.9,2744.06Z"/><circle class="cls-33" cx="3551.73" cy="2843.98" r="50.73" transform="translate(-970.72 3344.44) rotate(-45)"/><path d="M2965,3261.15c-60.41,0-110.17-39.3-112.52-41.18a17.71,17.71,0,0,1,22.13-27.65c.53.43,53.86,42.08,108.41,31.76,30.69-5.79,57-27.3,78.24-63.92a17.7,17.7,0,0,1,30.64,17.74c-26.68,46-61.19,73.31-102.57,81A132.08,132.08,0,0,1,2965,3261.15Z"/><path class="cls-23" d="M1426.08,3322.42s-129.35-485.65,227.68-934.83,907-629.56,1192.11-389.05c0,0,8-293.56-389.73-364.3s-996.42,338.4-1132.83,868.36C1223.44,2890.59,1256.1,3173.2,1426.08,3322.42Z"/><path class="cls-24" d="M1386.47,2502.45c130.76-497.37,704.59-881.36,1085.84-815,299.55,52.16,359,233.41,370.71,308.7.95.79,1.91,1.56,2.85,2.35,0,0,8-293.55-389.73-364.29s-996.42,338.4-1132.83,868.36c-99.87,388-67.21,670.6,102.77,819.82,0,0-14.64-55-20.47-145C1314.73,3026.19,1309.14,2796.59,1386.47,2502.45Z"/><path class="cls-25" d="M1379.74,2956.88s23.55-430.17,375.08-762.32S2517.2,1767.11,2730,1891.45c0,0-127.44-245-542.54-142.38C1795.53,1846,1310.81,2335.49,1379.74,2956.88Z"/><path class="cls-27" d="M1237.69,2903.49s22.66,145,29.21,210.51-136.1,5.84-148.06-97.7S1226.21,2827.38,1237.69,2903.49Z"/><path class="cls-25" d="M2038.91,1624.71s-265.52,113.86-440.29,279S1372.48,2319.85,1327,2319.08s-79.94-362,45.21-529.69,447.06-352.08,495.24-352.24S2100.12,1596.08,2038.91,1624.71Z"/><path class="cls-25" d="M891.94,2486.68c3,12.62,54.87,239.44,107.06,336.67s-77.62,169.1,26.77,343.94,254.53,90.53,259.75,109.26-36.27,137.84-69.72,176.65S963.27,3354.47,887.08,3076C778.68,2679.91,856.6,2340.54,891.94,2486.68Z"/><path class="cls-25" d="M2944.05,1655.21s-139.78-186.66-189.31-241.64,149.21-24.16,205.39,0,210.82,229,206.6,269.43S2995.36,1723,2944.05,1655.21Z"/><path class="cls-35" d="M2167.35,4156.6s52.86,3.72,57.43,9.61-2.16,37.36-10.09,44.93-51.91-27.27-58.15-37.24S2159,4155.92,2167.35,4156.6Z"/><path class="cls-35" d="M2294.15,4174.7s90.27.6,96.38,8.36-18.94,75.2-30.43,82.66-95.79-23.13-103.85-34.32S2274.78,4174.37,2294.15,4174.7Z"/><path class="cls-35" d="M2469.61,4174.7c1.37-.12,96.39-11.93,110.71-5.37s0,105.49-14,119.36-119.36,4.93-132.19-9.84S2451.52,4176.28,2469.61,4174.7Z"/><path class="cls-35" d="M2655.22,4160.19s102.05-22.34,118.17-16.52,23.72,65.95,12.83,85.64-107.13,43.72-143.53,47.15,2.23-44.83,4.47-66.88S2643.94,4162.58,2655.22,4160.19Z"/><path class="cls-35" d="M2836.65,4128.75c.87-.25,54.31-17,64.45-13.43s-44.91,68.61-61.47,74.89S2823.1,4132.59,2836.65,4128.75Z"/><circle class="cls-26" cx="2080.16" cy="5540.34" r="266.45"/><path class="cls-28" d="M2164.23,5572.32A266,266,0,0,1,2273.6,5357.1a265.7,265.7,0,0,0-193.44-83.22c-147.16,0-266.45,119.3-266.45,266.46s119.29,266.45,266.45,266.45a265.27,265.27,0,0,0,157.09-51.23A265.53,265.53,0,0,1,2164.23,5572.32Z"/><path class="cls-15" d="M1814.62,4977s263.54-447.91,271.48-667.61-331.2-168.5-536,78.92-346.61,558.83-283.68,778.52,197.29,377.53,332.73,482.05,326.34,209,388.2,174.9,226.09-485.25,217.56-539.64S1814.62,4977,1814.62,4977Z"/><path class="cls-16" d="M1673.89,5604.17c-135.45-104.52-269.82-262.35-332.74-482.05s78.91-531.1,283.68-778.52A677.43,677.43,0,0,1,1758.94,4220c-73,36.88-147,93.65-208.8,168.3-204.77,247.42-346.6,558.83-283.68,778.52s197.29,377.53,332.73,482.05,326.34,209,388.2,174.9c9-4.95,20.09-18.68,32.53-38.68C1936.52,5777.42,1786.15,5690.8,1673.89,5604.17Z"/><path class="cls-22" d="M1664.47,5111.51s83.51-80.34,187.92-109.15c-23.32-15.8-37.77-25.36-37.77-25.36s4.49-7.63,12.31-21.37c-68.12,1.78-182.71,12.37-258.53,59.8,0,0,140.87-32.89,193.22-15.09C1761.62,5000.34,1694.16,5041.88,1664.47,5111.51Z"/><path class="cls-35" d="M1783.1,4853s321.78-556.24,215.79-617.37-446.44,170.93-590,617.37,488,831.51,538.5,811.71,190.06-331.62,166.3-384.08S1895,5048,1852.39,5056.94s-187,111.85-216.73,110.86,32.61-104.93,16.77-114.82-93-9.13-114.83-19.41,54.45-80.57,122.75-99.38S1761.9,4890.63,1783.1,4853Z"/><ellipse class="cls-27" cx="2259.13" cy="5550.05" rx="125.58" ry="67.89" transform="translate(-3559.16 6983.28) rotate(-81.69)"/><path class="cls-30" d="M2252.78,5811.35s56.6,28.73,61.9,41,12.58,60,7.94,67-103.92-50.7-112.53-74.4S2232.06,5802,2252.78,5811.35Z"/><path class="cls-30" d="M2302.24,5273.88s189.8-12.81,201.35,0-20.55,108.86-32.33,119.72-68.57,5.77-97-6.47S2261.84,5278.62,2302.24,5273.88Z"/><path class="cls-35" d="M2223.22,4317.82s124.67,56.39,294.3,63.69,284.34-96.18,309.3-80.93c58.67,35.82-294.9,768.79-326.08,810.93s-214,29.53-248,20.91-210.41-149.92-223-199,70.31-259.37,104.81-396.68S2176.06,4300,2223.22,4317.82Z"/><path class="cls-35" d="M2915.11,4209.67s49.9,20.51,81.69,45.22,69,66.19,64.43,80.41c-2.51,7.76-48.75,16.21-70.68,4.06-9.15-5.07-35.92-56.21-69-86.07-23.76-21.45-30.55-32.47-27.11-39.7S2907.51,4207,2915.11,4209.67Z"/><path class="cls-36" d="M889,5436.76s-115-84.65-205.89-20.65S759,5607.73,931.13,5627L942,5699.24S625.31,5680,565.11,5489.73s192-223.35,308.23-125.22Z"/><path class="cls-37" d="M931.13,5627C759,5607.73,592.2,5480.1,683.1,5416.11S889,5436.75,889,5436.75l-9.34-43.11c-111.92-60.47-306.1-45-255.42,93.69,44,120.29,239.14,165.83,312.79,178.91Z"/><path class="cls-38" d="M587.38,5474.78c-20.77-65.63-4.35-112.55,30.83-141.85-49.76,26.88-77.87,78.55-53.1,156.8C625.31,5680,942,5699.23,942,5699.23l-2.61-17.4C863.51,5672.7,637.29,5632.51,587.38,5474.78Z"/><path class="cls-36" d="M1416.74,5718.34c-19.08,53.9-115.68,83-258.38,83s-238.47-30.6-258.37-83L771.23,5265.47H1545.5Z"/><path class="cls-38" d="M1209.35,5724c-142.69,0-238.47-30.61-258.37-83L844.2,5265.47h-73L900,5718.34c19.9,52.38,115.68,83,258.37,83s239.3-29.08,258.38-83l9.39-33.05C1381.55,5710.67,1306,5724,1209.35,5724Z"/><path class="cls-37" d="M987.91,5422.79s131,11.38,265.12-1.32c135.83-12.85,196.21-37.27,208.26-30.54s-38.77,214-68.27,247-229.23,51.3-336.44,25.27S939.22,5421,987.91,5422.79Z"/><ellipse class="cls-39" cx="1158.36" cy="5265.47" rx="387.13" ry="124.34"/><path class="cls-40" d="M1237.15,5360.19c-213.81,0-387.14-55.67-387.14-124.34,0-23.79,20.82-46,56.9-64.92-83,22.81-135.68,56.7-135.68,94.54,0,68.67,173.33,124.34,387.13,124.34,139.74,0,262.18-23.78,330.25-59.43C1421,5349,1333.14,5360.19,1237.15,5360.19Z"/><ellipse class="cls-41" cx="1211.53" cy="5291.02" rx="40.56" ry="226.96" transform="translate(-4130.76 6251.54) rotate(-87.3)"/><path class="cls-36" d="M795.33,5308.73c54.7-47.34,196.6-81.08,363-81.08s308.33,33.74,363,81.08c15.57-13.47,24.1-28,24.1-43.26,0-68.67-173.33-124.34-387.14-124.34s-387.13,55.67-387.13,124.34C771.23,5280.68,779.76,5295.26,795.33,5308.73Z"/><path class="cls-38" d="M800.28,5271.5c0-62.33,169.24-112.85,378-112.85,158.45,0,294.11,29.11,350.31,70.39-48.49-50.9-195.89-87.91-370.24-87.91-213.8,0-387.13,55.67-387.13,124.34,0,15.21,8.53,29.79,24.1,43.26a141.89,141.89,0,0,1,15-11.26C803.78,5289.13,800.28,5280.44,800.28,5271.5Z"/><path class="cls-37" d="M830.9,5270.84s106.12-60.38,380.63-54.38c208.24,4.56,307.6,71.85,307.6,71.85s20.9-69.06-137.78-100.13S859.57,5165.47,830.9,5270.84Z"/><path class="cls-39" d="M1068,5013.66s97.65-74.78,68-157.83-163.11-133-143-270.42,300.73-117.91,211,78.13c0,0-28.12-129.85-120.08-81s59.42,159.87,91.56,228.59S1185.19,4968.09,1068,5013.66Z"/><path class="cls-40" d="M993,4585.41c-20.07,137.45,113.38,187.36,143,270.42s-68,157.83-68,157.83c154.64-108.93,61.19-200.74-21.13-301.54s-31.67-215.3,84.43-195.25S1204,4663.54,1204,4663.54C1293.69,4467.5,1013,4448,993,4585.41Z"/><path class="cls-41" d="M1197.77,4616.9s-36.38-85.47-115.49-56S1045.61,4666,1110,4744.52s76.82,118.53,68.14,155.34-55.44,77.38-55.44,77.38,38.69-39.84,42.16-88.93-75.36-141.19-98.75-171.51-59.19-82-47.93-123.58,81.71-82.58,136.28-55.44S1197.77,4616.9,1197.77,4616.9Z"/><path class="cls-42" d="M7372.92,1456.25H5820.55l-1.42-7a176.27,176.27,0,0,1-3.51-35c0-96.23,78.29-174.52,174.52-174.52a174.43,174.43,0,0,1,101.88,33c41.34-207.27,222-356.22,435.09-356.22a443.8,443.8,0,0,1,415.34,287.4,259.09,259.09,0,0,1,175.93-68.2c144,0,261.22,117.19,261.22,261.23a262.78,262.78,0,0,1-5.27,52.32ZM5835,1438.77H7358.53a246.71,246.71,0,0,0,3.59-41.83c0-134.41-109.34-243.75-243.74-243.75A241.92,241.92,0,0,0,6945,1225.71l-9.92,10-4.57-13.35A426.33,426.33,0,0,0,6527.11,934c-209.38,0-386.22,149.73-420.48,356l-2.54,15.3-11.77-10.1a157,157,0,0,0-102.18-37.94c-86.59,0-157,70.45-157,157A159.39,159.39,0,0,0,5835,1438.77Z"/><path class="cls-42" d="M6613.53,1373.92H6472.78a33.59,33.59,0,0,1-33.56-33.55v-86.11h-37.15a30.79,30.79,0,0,1-21.77-52.58l141.07-141.08c11.62-11.63,31.92-11.65,43.56,0L6706,1201.68a30.8,30.8,0,0,1-21.78,52.58h-37.15v86.11A33.59,33.59,0,0,1,6613.53,1373.92Zm-70.37-304.87a13.25,13.25,0,0,0-9.43,3.91L6392.66,1214a13.32,13.32,0,0,0,9.41,22.74h54.63v103.59a16.1,16.1,0,0,0,16.08,16.07h140.75a16.09,16.09,0,0,0,16.07-16.07V1236.78h54.63a13.32,13.32,0,0,0,9.42-22.74L6552.57,1073A13.22,13.22,0,0,0,6543.16,1069.05Z"/><rect class="cls-29" x="6820.42" y="2255.14" width="2611.41" height="1780.26" rx="5.05"/><path class="cls-30" d="M9358.66,2255.14H6893.59a73.17,73.17,0,0,0-73.17,73.17V3853.18H9431.83V2328.31A73.17,73.17,0,0,0,9358.66,2255.14Z"/><path class="cls-43" d="M9358.66,2255.14H6893.59a73.17,73.17,0,0,0-73.17,73.17v5.27a73.17,73.17,0,0,1,73.17-73.17H9358.66a73.17,73.17,0,0,1,73.17,73.17v-5.27A73.17,73.17,0,0,0,9358.66,2255.14Z"/><rect class="cls-44" x="6921.91" y="2367.31" width="2408.43" height="1425.51"/><rect class="cls-45" x="7237.5" y="2549.15" width="1395.91" height="33.69" rx="1.16"/><rect class="cls-46" x="7001.07" y="2436.62" width="910.75" height="43.24" rx="1.49"/><rect class="cls-46" x="7001.07" y="2549.15" width="121.15" height="33.69" rx="1.16"/><rect class="cls-47" x="7015.2" y="2654.24" width="722.35" height="20.94" rx="0.72"/><rect class="cls-47" x="7015.2" y="2739.53" width="722.35" height="20.94" rx="0.72"/><rect class="cls-47" x="7015.2" y="2824.82" width="722.35" height="20.94" rx="0.72"/><rect class="cls-47" x="7015.2" y="2910.11" width="722.35" height="20.94" rx="0.72"/><rect class="cls-47" x="7015.2" y="2995.4" width="127.95" height="20.94" rx="0.72"/><rect class="cls-47" x="7201.99" y="2995.4" width="127.95" height="20.94" rx="0.72"/><rect class="cls-47" x="7388.79" y="2995.4" width="127.95" height="20.94" rx="0.72"/><rect class="cls-47" x="7575.59" y="2995.4" width="127.95" height="20.94" rx="0.72"/><rect class="cls-47" x="7762.38" y="2995.4" width="127.95" height="20.94" rx="0.72"/><rect class="cls-47" x="7949.18" y="2995.4" width="127.95" height="20.94" rx="0.72"/><rect class="cls-47" x="7015.2" y="3080.69" width="722.35" height="20.94" rx="0.72"/><rect class="cls-48" x="8294.6" y="2788.84" width="889.49" height="29.19" rx="1.01"/><rect class="cls-49" x="8294.6" y="2916.45" width="889.49" height="29.19" rx="1.01"/><rect class="cls-49" x="8294.6" y="3035.96" width="889.49" height="29.19" rx="1.01"/><rect class="cls-49" x="8294.6" y="3155.46" width="889.49" height="29.19" rx="1.01"/><rect class="cls-49" x="8294.6" y="3274.97" width="889.49" height="29.19" rx="1.01"/><rect class="cls-49" x="8294.6" y="3394.47" width="471.23" height="29.19" rx="1.01"/><rect class="cls-49" x="8583.62" y="3475.82" width="471.23" height="29.19" rx="1.01"/><rect class="cls-49" x="8583.62" y="3560.06" width="471.23" height="29.19" rx="1.01"/><rect class="cls-49" x="7119.88" y="3560.06" width="235.23" height="29.19" rx="1.01"/><rect class="cls-49" x="7119.88" y="3490.41" width="235.23" height="29.19" rx="1.01"/><rect class="cls-49" x="7119.88" y="3420.76" width="235.23" height="29.19" rx="1.01"/><rect class="cls-49" x="7119.88" y="3351.1" width="235.23" height="29.19" rx="1.01"/><rect class="cls-49" x="7457.97" y="3351.1" width="91.76" height="29.19" rx="1.01"/><rect class="cls-49" x="7457.97" y="3505.12" width="91.76" height="29.19" rx="1.01"/><g class="cls-50"><polygon class="cls-43" points="9330.34 3271.38 9330.34 3015.63 8553.14 3792.82 8808.9 3792.82 9330.34 3271.38"/><polygon class="cls-43" points="7992.24 3792.82 9330.34 2454.72 9330.34 2367.31 8735.24 2367.31 7309.73 3792.82 7992.24 3792.82"/><polygon class="cls-43" points="6921.91 2987.26 6921.91 3563.34 8117.93 2367.31 7541.86 2367.31 6921.91 2987.26"/></g><path class="cls-41" d="M9047.11,1032.28H8410.79l-.59-2.87a72.6,72.6,0,0,1-1.43-14.32,71.48,71.48,0,0,1,113.29-58,181.93,181.93,0,0,1,348.6-28.21,107.08,107.08,0,0,1,177,100.57Zm-630.4-7.16h624.5a99.93,99.93,0,0,0-98.44-117.07,99.18,99.18,0,0,0-71.06,29.73l-4.07,4.11-1.87-5.47a174.76,174.76,0,0,0-337.72,27.71l-1,6.28-4.82-4.15a64.37,64.37,0,0,0-105.48,58.86Z"/><path class="cls-41" d="M8735.83,998.53h-57.69a13.77,13.77,0,0,1-13.76-13.75v-35.3h-15.22a12.62,12.62,0,0,1-8.93-21.55l57.83-57.83a12.92,12.92,0,0,1,17.85,0l57.83,57.83a12.62,12.62,0,0,1-8.93,21.55h-15.22v35.3A13.77,13.77,0,0,1,8735.83,998.53Zm-28.84-125a5.46,5.46,0,0,0-3.87,1.6L8645.3,933a5.46,5.46,0,0,0,3.86,9.32h22.39v42.46a6.6,6.6,0,0,0,6.59,6.59h57.69a6.6,6.6,0,0,0,6.59-6.59V942.32h22.39a5.46,5.46,0,0,0,3.87-9.32l-57.83-57.83A5.46,5.46,0,0,0,8707,873.57Z"/><path class="cls-51" d="M10373.73,4853h-1107l-1-5a124.55,124.55,0,0,1,122-149.38,124.39,124.39,0,0,1,72.65,23.5c29.48-147.8,158.33-254,310.26-254A316.48,316.48,0,0,1,10066.77,4673a184.76,184.76,0,0,1,125.45-48.63c102.71,0,186.28,83.57,186.28,186.28a187.1,187.1,0,0,1-3.76,37.31Zm-1096.68-12.47h1086.42a175.58,175.58,0,0,0,2.56-29.83c0-95.84-78-173.81-173.81-173.81a172.52,172.52,0,0,0-123.63,51.71l-7.07,7.15-3.26-9.52a304,304,0,0,0-287.67-205.65c-149.31,0-275.41,106.76-299.84,253.86l-1.82,10.92-8.39-7.21A111.9,111.9,0,0,0,9275.69,4823,113.36,113.36,0,0,0,9277.05,4840.48Z"/><path class="cls-51" d="M9832.21,4794.23H9731.85a24,24,0,0,1-23.93-23.91V4708.9h-26.49a22,22,0,0,1-15.53-37.49l100.6-100.6c8.28-8.29,22.76-8.31,31.06,0l100.61,100.6a22,22,0,0,1-15.54,37.49h-26.49v61.42A24,24,0,0,1,9832.21,4794.23ZM9782,4576.84a9.43,9.43,0,0,0-6.72,2.79l-100.6,100.6a9.5,9.5,0,0,0,6.72,16.21h38.95v73.88a11.48,11.48,0,0,0,11.47,11.45h100.36a11.47,11.47,0,0,0,11.46-11.45v-73.88h39a9.49,9.49,0,0,0,6.72-16.21l-100.6-100.6A9.45,9.45,0,0,0,9782,4576.84Z"/><rect class="cls-52" x="5455.91" y="1526.46" width="2162.4" height="10.51"/><g class="cls-53"><path class="cls-54" d="M5455.91,1526.46H7618.3a0,0,0,0,1,0,0V2838.24a7.52,7.52,0,0,1-7.52,7.52H5463.42a7.52,7.52,0,0,1-7.52-7.52V1526.46A0,0,0,0,1,5455.91,1526.46Z"/><rect class="cls-54" x="5649.19" y="1803.74" width="1151.47" height="413.33"/><rect class="cls-54" x="5649.19" y="2294.11" width="404.89" height="128.23"/><rect class="cls-54" x="6114.84" y="2294.11" width="685.81" height="128.23"/><rect class="cls-54" x="6877.03" y="1803.74" width="626.82" height="178.94"/><rect class="cls-54" x="5649.19" y="2499.39" width="1854.66" height="178.94"/><rect class="cls-54" x="6877.03" y="2029.44" width="626.82" height="407.18"/><rect class="cls-54" x="5455.91" y="1526.46" width="2162.4" height="215.72"/><circle class="cls-54" cx="5542.77" cy="1628.89" r="44.74"/><path class="cls-51" d="M5542.77,1673.63a44.72,44.72,0,0,1-44.69-44.29c0,.16,0,.3,0,.46,0,25.21,20,45.64,44.73,45.64s44.74-20.43,44.74-45.64c0-.16,0-.3,0-.46A44.72,44.72,0,0,1,5542.77,1673.63Z"/><circle class="cls-54" cx="5649.19" cy="1628.89" r="44.74"/><path class="cls-51" d="M5649.19,1673.63a44.72,44.72,0,0,1-44.7-44.29c0,.16,0,.3,0,.46,0,25.21,20,45.64,44.74,45.64s44.73-20.43,44.73-45.64c0-.16,0-.3,0-.46A44.72,44.72,0,0,1,5649.19,1673.63Z"/><circle class="cls-54" cx="5754.77" cy="1628.89" r="44.74"/><path class="cls-51" d="M5754.77,1673.63a44.72,44.72,0,0,1-44.69-44.29c0,.16,0,.3,0,.46,0,25.21,20,45.64,44.73,45.64s44.74-20.43,44.74-45.64c0-.16,0-.3,0-.46A44.72,44.72,0,0,1,5754.77,1673.63Z"/><rect class="cls-55" x="5455.91" y="1738.02" width="2162.4" height="4.16"/><circle class="cls-46" cx="5542.77" cy="1628.89" r="35.47"/><circle class="cls-47" cx="5649.19" cy="1628.89" r="35.47"/><circle class="cls-49" cx="5754.77" cy="1628.89" r="35.47"/><rect class="cls-54" x="5507.3" y="1773.02" width="70.94" height="987.45" rx="2.45"/><rect class="cls-51" x="5526.1" y="1803.74" width="28.34" height="259.11" rx="0.98"/><polyline class="cls-51" points="5728.65 2545.08 5688.77 2584.96 5727.1 2623.28"/><polyline class="cls-51" points="5768.52 2545.08 5728.65 2584.96 5766.97 2623.28"/><polyline class="cls-51" points="6981.77 1854.11 6941.9 1893.98 6980.22 1932.3"/></g><path class="cls-56" d="M7258.45,3945.3H6251a7.52,7.52,0,0,1-7.52-7.52V2985.14H7266v952.64A7.52,7.52,0,0,1,7258.45,3945.3Z"/><rect class="cls-56" x="6384.18" y="3186.94" width="838.01" height="300.81"/><rect class="cls-56" x="6384.18" y="3543.82" width="294.67" height="93.32"/><rect class="cls-56" x="6723.08" y="3543.82" width="499.12" height="93.32"/><rect class="cls-56" x="6243.52" y="2985.14" width="1022.45" height="156.99"/><circle class="cls-56" cx="6306.74" cy="3059.69" r="32.56"/><path class="cls-13" d="M6306.74,3092.25a32.55,32.55,0,0,1-32.53-32.23c0,.11,0,.22,0,.33,0,18.35,14.58,33.22,32.56,33.22s32.56-14.87,32.56-33.22c0-.11,0-.22,0-.33A32.55,32.55,0,0,1,6306.74,3092.25Z"/><circle class="cls-56" cx="6384.18" cy="3059.69" r="32.56"/><path class="cls-13" d="M6384.18,3092.25a32.54,32.54,0,0,1-32.52-32.23c0,.11,0,.22,0,.33,0,18.35,14.57,33.22,32.55,33.22s32.56-14.87,32.56-33.22c0-.11,0-.22,0-.33A32.55,32.55,0,0,1,6384.18,3092.25Z"/><circle class="cls-56" cx="6461.03" cy="3059.69" r="32.56"/><path class="cls-13" d="M6461,3092.25A32.55,32.55,0,0,1,6428.5,3060c0,.11,0,.22,0,.33,0,18.35,14.58,33.22,32.56,33.22s32.56-14.87,32.56-33.22c0-.11,0-.22,0-.33A32.53,32.53,0,0,1,6461,3092.25Z"/><rect class="cls-57" x="6243.52" y="3139.11" width="1022.45" height="3.03"/><circle class="cls-46" cx="6306.74" cy="3059.69" r="25.81"/><circle class="cls-47" cx="6384.18" cy="3059.69" r="25.81"/><circle class="cls-49" cx="6461.03" cy="3059.69" r="25.81"/><rect class="cls-56" x="6280.92" y="3164.58" width="51.63" height="718.65" rx="1.58"/><rect class="cls-13" x="6294.61" y="3186.94" width="20.63" height="188.57" rx="0.63"/><polyline class="cls-13" points="6442.02 3726.47 6413 3755.49 6440.89 3783.38"/><polyline class="cls-13" points="6471.03 3726.47 6442.02 3755.49 6469.9 3783.38"/><path class="cls-58" d="M9929.38,3920.82H9129.15a7.52,7.52,0,0,1-7.52-7.52V3506.75H9936.9V3913.3A7.52,7.52,0,0,1,9929.38,3920.82Z"/><rect class="cls-58" x="9205.75" y="3627.43" width="473.73" height="179.89"/><rect class="cls-58" x="9121.63" y="3506.75" width="815.26" height="93.89"/><circle class="cls-58" cx="9159.44" cy="3551.33" r="19.47"/><path class="cls-9" d="M9159.44,3570.8a19.46,19.46,0,0,1-19.45-19.28c0,.07,0,.13,0,.2a19.47,19.47,0,1,0,38.94,0c0-.07,0-.13,0-.2A19.46,19.46,0,0,1,9159.44,3570.8Z"/><circle class="cls-58" cx="9205.75" cy="3551.33" r="19.47"/><path class="cls-9" d="M9205.75,3570.8a19.47,19.47,0,0,1-19.45-19.28c0,.07,0,.13,0,.2a19.48,19.48,0,1,0,38.95,0c0-.07,0-.13,0-.2A19.47,19.47,0,0,1,9205.75,3570.8Z"/><circle class="cls-58" cx="9251.71" cy="3551.33" r="19.47"/><path class="cls-9" d="M9251.71,3570.8a19.46,19.46,0,0,1-19.45-19.28c0,.07,0,.13,0,.2a19.47,19.47,0,1,0,38.94,0c0-.07,0-.13,0-.2A19.46,19.46,0,0,1,9251.71,3570.8Z"/><rect class="cls-59" x="9121.63" y="3598.83" width="815.26" height="1.81"/><circle class="cls-46" cx="9159.44" cy="3551.33" r="15.44"/><circle class="cls-47" cx="9205.75" cy="3551.33" r="15.44"/><circle class="cls-49" cx="9251.71" cy="3551.33" r="15.44"/><rect class="cls-58" x="9144" y="3614.06" width="30.88" height="269.64" rx="1.07"/><rect class="cls-9" x="9152.18" y="3627.43" width="12.33" height="112.77" rx="0.43"/><path class="cls-9" d="M9372.57,3646.72H9223.43a2.54,2.54,0,0,1,0-5.07h149.14a2.54,2.54,0,1,1,0,5.07Z"/><path class="cls-9" d="M9404.36,3646.72h-20.05a2.54,2.54,0,1,1,0-5.07h20.05a2.54,2.54,0,0,1,0,5.07Z"/><path class="cls-9" d="M9607.34,3646.72H9426.48a2.54,2.54,0,0,1,0-5.07h180.86a2.54,2.54,0,0,1,0,5.07Z"/><path class="cls-9" d="M9398.37,3659.37H9223.43a2.54,2.54,0,0,1,0-5.07h174.94a2.54,2.54,0,0,1,0,5.07Z"/><path class="cls-9" d="M9567.07,3657.06H9413.12a2.53,2.53,0,1,1,0-5.06h153.95a2.53,2.53,0,1,1,0,5.06Z"/><path class="cls-9" d="M9609.18,3657.06h-30.86a2.53,2.53,0,1,1,0-5.06h30.86a2.53,2.53,0,1,1,0,5.06Z"/><path class="cls-9" d="M9432,3675H9229.88a2.53,2.53,0,1,1,0-5.06H9432a2.53,2.53,0,1,1,0,5.06Z"/><path class="cls-9" d="M9593.75,3675h-47.69a2.53,2.53,0,1,1,0-5.06h47.69a2.53,2.53,0,1,1,0,5.06Z"/><path class="cls-9" d="M9609.18,3689.11h-229.7a2.54,2.54,0,0,1,0-5.07h229.7a2.54,2.54,0,1,1,0,5.07Z"/><path class="cls-9" d="M9438,3708.2H9223.43a2.53,2.53,0,0,1,0-5.06H9438a2.53,2.53,0,1,1,0,5.06Z"/><path class="cls-9" d="M9612.41,3720.18H9379.48a2.53,2.53,0,0,1,0-5.06h232.93a2.53,2.53,0,1,1,0,5.06Z"/><path class="cls-9" d="M9317.81,3726.18H9253.7a2.54,2.54,0,0,1,0-5.07h64.11a2.54,2.54,0,0,1,0,5.07Z"/><path class="cls-9" d="M9273.51,3689.11h-50.08a2.54,2.54,0,0,1,0-5.07h50.08a2.54,2.54,0,1,1,0,5.07Z"/><path class="cls-60" d="M8790.08,1180.93h1453.66a0,0,0,0,1,0,0V3283.16a7.52,7.52,0,0,1-7.52,7.52H8797.59a7.52,7.52,0,0,1-7.52-7.52V1180.93A0,0,0,0,1,8790.08,1180.93Z"/><rect class="cls-60" x="8983.36" y="1458.21" width="1151.47" height="1007.51"/><rect class="cls-60" x="8983.36" y="2739.03" width="404.89" height="128.23"/><rect class="cls-60" x="9449.02" y="2739.03" width="685.81" height="128.23"/><rect class="cls-60" x="8983.36" y="2944.31" width="1151.47" height="178.94"/><rect class="cls-60" x="8790.08" y="1180.93" width="1453.66" height="215.72"/><circle class="cls-52" cx="8876.94" cy="1283.36" r="44.74"/><path class="cls-46" d="M8876.94,1328.1a44.72,44.72,0,0,1-44.69-44.29c0,.15,0,.3,0,.46,0,25.21,20,45.64,44.73,45.64s44.74-20.43,44.74-45.64c0-.16,0-.31,0-.46A44.72,44.72,0,0,1,8876.94,1328.1Z"/><circle class="cls-52" cx="8983.36" cy="1283.36" r="44.74"/><path class="cls-46" d="M8983.36,1328.1a44.72,44.72,0,0,1-44.7-44.29c0,.15,0,.3,0,.46,0,25.21,20,45.64,44.74,45.64s44.73-20.43,44.73-45.64c0-.16,0-.31,0-.46A44.72,44.72,0,0,1,8983.36,1328.1Z"/><circle class="cls-52" cx="9088.94" cy="1283.36" r="44.74"/><path class="cls-46" d="M9088.94,1328.1a44.72,44.72,0,0,1-44.69-44.29c0,.15,0,.3,0,.46,0,25.21,20,45.64,44.73,45.64s44.74-20.43,44.74-45.64c0-.16,0-.31,0-.46A44.72,44.72,0,0,1,9088.94,1328.1Z"/><rect class="cls-61" x="8790.08" y="1392.49" width="1453.66" height="4.16"/><circle class="cls-46" cx="8876.94" cy="1283.36" r="35.47"/><circle class="cls-47" cx="8983.36" cy="1283.36" r="35.47"/><circle class="cls-49" cx="9088.94" cy="1283.36" r="35.47"/><rect class="cls-60" x="8841.47" y="1427.49" width="70.94" height="1777.9" rx="2.45"/><rect class="cls-62" x="8860.27" y="1458.21" width="28.34" height="259.11" rx="0.98"/><line class="cls-63" x1="9028.09" y1="1517.28" x2="9512.97" y2="1517.28"/><line class="cls-63" x1="9559.09" y1="1517.28" x2="9637.94" y2="1517.28"/><line class="cls-63" x1="9724.87" y1="1517.28" x2="10068.99" y2="1517.28"/><line class="cls-63" x1="9028.09" y1="1567.01" x2="9614.39" y2="1567.01"/><line class="cls-63" x1="9672.35" y1="1557.95" x2="9910.69" y2="1557.95"/><line class="cls-63" x1="9954.89" y1="1557.95" x2="10076.24" y2="1557.95"/><line class="cls-63" x1="9053.47" y1="1628.59" x2="9746.61" y2="1628.59"/><line class="cls-63" x1="9828.11" y1="1628.59" x2="10015.56" y2="1628.59"/><line class="cls-63" x1="10076.24" y1="1683.91" x2="9540.13" y2="1683.91"/><line class="cls-63" x1="9770.15" y1="1758.99" x2="9028.09" y2="1758.99"/><line class="cls-63" x1="9540.13" y1="1806.08" x2="10088.91" y2="1806.08"/><line class="cls-63" x1="9496.23" y1="1945.24" x2="9044.83" y2="1945.24"/><line class="cls-63" x1="9028.09" y1="1683.91" x2="9224.99" y2="1683.91"/><line class="cls-63" x1="9344.53" y1="2768.59" x2="9208.69" y2="2768.59"/><line class="cls-63" x1="9331.85" y1="2828.36" x2="9018.52" y2="2828.36"/><line class="cls-63" x1="9483.99" y1="2768.59" x2="9540.13" y2="2768.59"/><line class="cls-63" x1="9586.32" y1="2768.59" x2="9642.46" y2="2768.59"/><line class="cls-63" x1="9688.65" y1="2768.59" x2="9744.79" y2="2768.59"/><line class="cls-63" x1="9790.98" y1="2768.59" x2="9847.13" y2="2768.59"/><line class="cls-63" x1="9893.31" y1="2768.59" x2="9949.46" y2="2768.59"/><line class="cls-63" x1="9995.64" y1="2768.59" x2="10051.79" y2="2768.59"/><line class="cls-63" x1="9483.99" y1="2812.23" x2="9520.21" y2="2812.23"/><line class="cls-63" x1="9568.21" y1="2812.23" x2="9604.43" y2="2812.23"/><line class="cls-63" x1="9652.43" y1="2812.23" x2="9688.65" y2="2812.23"/><line class="cls-63" x1="9736.64" y1="2812.23" x2="9772.87" y2="2812.23"/><line class="cls-63" x1="9820.86" y1="2812.23" x2="9857.09" y2="2812.23"/><line class="cls-63" x1="9905.08" y1="2812.23" x2="9941.31" y2="2812.23"/><line class="cls-63" x1="9989.3" y1="2812.23" x2="10025.52" y2="2812.23"/><polyline class="cls-63" points="9062.82 2990 9022.94 3029.87 9061.27 3068.19"/><polyline class="cls-63" points="9102.69 2990 9062.82 3029.87 9101.14 3068.19"/><polyline class="cls-63" points="9434.2 2036.58 9344.53 2126.24 9430.7 2212.41"/><polyline class="cls-63" points="9523.86 2036.58 9434.2 2126.24 9520.37 2212.41"/><line class="cls-63" x1="9201.46" y1="2990" x2="10051.79" y2="2990"/><line class="cls-63" x1="9201.46" y1="3029.1" x2="9716.72" y2="3029.1"/><line class="cls-63" x1="9201.46" y1="3084.14" x2="9716.72" y2="3084.14"/><circle class="cls-63" cx="9763.81" cy="2079.63" r="177.49"/><path class="cls-63" d="M9692.73,2124.49a71.08,71.08,0,1,0,142.16,0Z"/><path class="cls-63" d="M9658.26,2050.52a34.48,34.48,0,0,1,68.95,0"/><path class="cls-63" d="M9800.42,2050.52a34.48,34.48,0,0,1,69,0"/><line class="cls-63" x1="9913.5" y1="2251.25" x2="10059.83" y2="2251.25"/><path class="cls-38" d="M10243.74,3619.85a88,88,0,1,1,88-88A88.09,88.09,0,0,1,10243.74,3619.85Zm0-160.14a72.15,72.15,0,1,0,72.15,72.14A72.22,72.22,0,0,0,10243.74,3459.71Z"/><path class="cls-38" d="M5936.36,3233.26a88,88,0,1,1,88-88A88.09,88.09,0,0,1,5936.36,3233.26Zm0-160.14a72.15,72.15,0,1,0,72.15,72.15A72.23,72.23,0,0,0,5936.36,3073.12Z"/><rect class="cls-42" x="7770.25" y="1297.65" width="28.98" height="259.67" transform="translate(1270.89 5922.99) rotate(-45)"/><rect class="cls-42" x="7654.9" y="1413" width="259.67" height="28.98" transform="translate(1270.71 5922.74) rotate(-45)"/><path class="cls-42" d="M6678.86,5187.08l-206.41-206.4,206.41-206.42,206.4,206.42Zm-165.43-206.4,165.43,165.42,165.42-165.42-165.42-165.44Z"/><path class="cls-42" d="M5987.07,3893l-206.4-206.4,206.4-206.41,206.4,206.41Zm-165.42-206.4L5987.07,3852l165.43-165.42-165.43-165.44Z"/><path class="cls-38" d="M10212.69,4054.34l-103.2-103.2,103.2-103.21,103.2,103.21Zm-82.71-103.2,82.71,82.71,82.71-82.71-82.71-82.72Z"/><polygon class="cls-38" points="10636.64 3031.49 10515.26 2910.11 10636.64 2788.73 10649.32 2801.41 10540.62 2910.11 10649.32 3018.81 10636.64 3031.49"/><polygon class="cls-38" points="10730.07 3031.49 10608.68 2910.11 10730.07 2788.73 10742.75 2801.41 10634.04 2910.11 10742.75 3018.81 10730.07 3031.49"/><polygon class="cls-38" points="8490.54 2104.06 8369.15 1982.68 8490.54 1861.29 8503.21 1873.97 8394.51 1982.68 8503.21 2091.38 8490.54 2104.06"/><polygon class="cls-38" points="8583.96 2104.06 8462.58 1982.68 8583.96 1861.29 8596.64 1873.97 8487.93 1982.68 8596.64 2091.38 8583.96 2104.06"/><path class="cls-38" d="M7971.1,1996.41h-84.53a22.17,22.17,0,0,1-22.15-22.14v-49.72H7844.1a20.49,20.49,0,0,1-14.49-35l84.73-84.73a20.52,20.52,0,0,1,29,0l84.72,84.74a20.49,20.49,0,0,1-14.48,35h-20.32v49.72A22.16,22.16,0,0,1,7971.1,1996.41Zm-42.27-183.08a6,6,0,0,0-4.24,1.75l-84.73,84.73a6,6,0,0,0,4.24,10.25h34.81v64.21a7.66,7.66,0,0,0,7.66,7.65h84.53a7.66,7.66,0,0,0,7.65-7.65v-64.21h34.81a6,6,0,0,0,4.24-10.25l-84.72-84.73A6,6,0,0,0,7928.83,1813.33Z"/><path class="cls-41" d="M10557.53,2457H10473a22.17,22.17,0,0,1-22.15-22.14v-49.73h-20.32a20.49,20.49,0,0,1-14.49-35l84.73-84.73a20.51,20.51,0,0,1,29,0l84.72,84.74a20.48,20.48,0,0,1-14.48,35h-20.32v49.73A22.16,22.16,0,0,1,10557.53,2457Zm-42.27-183.08a6,6,0,0,0-4.24,1.75l-84.73,84.73a6,6,0,0,0,4.24,10.25h34.81v64.21a7.66,7.66,0,0,0,7.66,7.65h84.53a7.66,7.66,0,0,0,7.65-7.65v-64.21H10600a6,6,0,0,0,4.24-10.25l-84.72-84.73A6,6,0,0,0,10515.26,2273.93Z"/></svg>