<?xml version="1.0" encoding="utf-8"?>
<!-- Generator: Adobe Illustrator 23.0.4, SVG Export Plug-In . SVG Version: 6.00 Build 0)  -->
<svg version="1.1" id="Layer_1" xmlns="http://www.w3.org/2000/svg" xmlns:xlink="http://www.w3.org/1999/xlink" x="0px" y="0px"
	 viewBox="0 0 217 237" style="enable-background:new 0 0 217 237;" xml:space="preserve">
<style type="text/css">
	.st0{fill-rule:evenodd;clip-rule:evenodd;fill:#FA7C91;}
	.st1{fill:none;}
	.st2{fill:#FA7C91;}
	.st3{fill:#F4A992;}
	.st4{opacity:0.5;fill:#BB4063;}
	.st5{fill:#FFD893;}
	.st6{opacity:0.5;fill:#FFA959;}
	.st7{fill:#FDE8D6;}
	.st8{fill:#FDDCBB;}
	.st9{fill:#FFFFFF;}
	.st10{fill:#FFABAB;}
</style>
<title>mf-avatar</title>
<circle class="st0" cx="108.6" cy="129.2" r="108.3"/>
<desc>Created with Sketch.</desc>
<path class="st1" d="M174.5,218.6c-0.2-1.1-0.3-2.1-0.4-3.2l0,0C174.3,216.5,174.4,217.5,174.5,218.6z"/>
<path class="st2" d="M159.3,83.4c0,10.1-2.9,20-8.5,28.5l-2.8,4.3l0.8,5.3c0.3,1.7,0.4,3.5,0.4,5.3c0,7.1,4,13.5,10.5,16.4l11.5,5.1
	l-0.9,1.5l18.1,8v0c5.1,2.7,8.9,7.3,10.5,12.9l3.6,12.5c9.1-15.9,14.4-34.3,14.4-54c0-44.6-27-82.9-65.5-99.5
	c5.1,8.3,7.9,17.8,7.9,27.6V83.4z"/>
<path class="st2" d="M174.2,215.4c-0.1-0.5-0.1-1.1-0.1-1.6C174.1,214.3,174.1,214.8,174.2,215.4L174.2,215.4z"/>
<path class="st2" d="M173.9,208.9c0,1.6,0.1,3.2,0.2,4.8C173.9,212.1,173.9,210.5,173.9,208.9z"/>
<path class="st2" d="M38.8,211.5c0-0.8,0-1.7,0-2.5C38.8,209.8,38.8,210.6,38.8,211.5z"/>
<path class="st2" d="M24.3,157.8l18.1-8l-0.9-1.5l11.5-5.1c6.5-2.9,10.5-9.3,10.5-16.4c0-1.8,0.1-3.5,0.4-5.3l0.8-5.3l-2.8-4.3
	c-5.5-8.5-8.5-18.4-8.5-28.5V57.3c0-8.7,2.2-17.2,6.2-24.8C24.4,50.4,0.3,87,0.3,129.2c0,17.4,4.1,33.9,11.4,48.5l2-7
	C15.3,165.1,19.1,160.5,24.3,157.8z"/>
<path class="st2" d="M34.5,185.2c1.4,3.8,2.5,7.7,3.2,11.7C37,192.9,35.9,189,34.5,185.2l-10.2-27.4l4.1,11.1v0L34.5,185.2z"/>
<path class="st2" d="M178.2,185.2c-1.1,3.1-2.1,6.2-2.7,9.3C176.1,191.4,177,188.2,178.2,185.2l2.5-6.7L178.2,185.2z"/>
<path class="st3" d="M37.7,196.9c0.7,4,1.1,8,1.1,12c0,0.8,0,1.7,0,2.5c0,0.2,0,0.3,0,0.5c18.9,15.9,43.2,25.5,69.8,25.5
	c24.7,0,47.4-8.2,65.6-22.1c-0.1-0.5-0.1-1.1-0.1-1.6c-0.1-1.6-0.2-3.2-0.2-4.8c0-4.8,0.5-9.7,1.6-14.4c0.7-3.2,1.6-6.3,2.7-9.3
	l2.5-6.7l3.6-9.6v0l4.1-11.1c0,0,0,0,0,0v0l-18.1-8l-8.7,14.4c-8.8,14.5-24.5,23.4-41.5,23.4h-13.7H92.6c-17,0-32.7-8.9-41.5-23.4
	l-8.7-14.4l-18.1,8l10.2,27.4C35.9,189,37,192.9,37.7,196.9z M73.4,195.8c7.8,1.4,16.1,2.8,24.4,3.8c8.3,1,16.7,1.7,24.6,2.2
	c7.9,0.5,15.4,0.7,22,1c-6.3,1.8-13.9,3.1-22,3.6c-8.1,0.6-16.8,0.3-25.4-0.7c-8.6-1.1-17.1-3-24.8-5.5c-7.7-2.5-14.7-5.6-20.4-8.9
	C58.2,192.8,65.5,194.3,73.4,195.8z"/>
<path class="st3" d="M97,205.8c8.6,1.1,17.3,1.3,25.4,0.7c8.1-0.5,15.6-1.9,22-3.6c-6.6-0.3-14.1-0.6-22-1
	c-7.9-0.5-16.3-1.2-24.6-2.2c-8.3-1-16.6-2.4-24.4-3.8c-7.8-1.4-15.1-3-21.6-4.3c5.7,3.3,12.7,6.4,20.4,8.9
	C79.9,202.8,88.4,204.7,97,205.8z"/>
<path class="st4" d="M97,205.8c8.6,1.1,17.3,1.3,25.4,0.7c8.1-0.5,15.6-1.9,22-3.6c-6.6-0.3-14.1-0.6-22-1
	c-7.9-0.5-16.3-1.2-24.6-2.2c-8.3-1-16.6-2.4-24.4-3.8c-7.8-1.4-15.1-3-21.6-4.3c5.7,3.3,12.7,6.4,20.4,8.9
	C79.9,202.8,88.4,204.7,97,205.8z"/>
<path class="st5" d="M108.4,139.7h-2.1h-2.1c-15.2,0-29.4-7.7-37.7-20.5l-0.9-1.4c1.5,7.1,4.5,14.6,9.4,21.4
	c2.4,3.4,5.3,6.7,8.5,9.5h22.8h8.7c4.6-1.3,9.2-3.4,13.4-6.1c4.7-3.1,8.8-7.1,12.1-11.4c3.3-4.3,5.7-8.9,7.4-13.2
	c-0.3,4.6-1.8,9.9-4.7,15c-2.9,5.1-7.2,9.8-12.4,13.3c-1.4,0.9-2.9,1.8-4.4,2.5h41.5l2.4,1l0.9-1.5l-11.5-5.1
	c-6.5-2.9-10.5-9.3-10.5-16.4c0-1.8-0.1-3.5-0.4-5.3l-0.8-5.3l-1.9,3C137.8,132,123.6,139.7,108.4,139.7z"/>
<path class="st5" d="M75,148.7c-1.7-2.2-3.1-4.5-4.4-6.8c-4.4-8.2-5.8-17-5-24.2l-0.9-1.5l-0.8,5.3c-0.3,1.7-0.4,3.5-0.4,5.3
	c0,7.1-4,13.5-10.5,16.4l-11.5,5.1l0.9,1.5l2.4-1H75z"/>
<path class="st5" d="M92.6,187.5h13.7h13.7c17,0,32.7-8.9,41.5-23.4l8.7-14.4l-2.4-1h-41.5c-4.1,2-8.5,3.2-12.7,3.7
	c-5.8,0.7-11.3,0-15.6-1.6c4.6,0.1,9.8-0.3,15-1.7c0.6-0.2,1.2-0.3,1.9-0.5h-8.7H83.5c3.3,2.9,6.9,5.4,10.8,7.4
	c7.8,3.9,16.7,5.5,25.1,5.2c8.4-0.2,16.3-2.4,22.9-5.5c-5.3,5-13.2,9.2-22.4,10.6c-9.2,1.5-19.6,0.3-28.7-4.2
	c-6.5-3.2-12-8-16.2-13.5H44.8l-2.4,1l8.7,14.4C59.9,178.7,75.6,187.5,92.6,187.5z M80.1,169.4c8,3.9,17.3,6.4,26.5,6.6
	c9.3,0.1,18.6-2.1,26.7-5.8c8.2-3.7,15.1-8.9,20.6-14.3c-3.5,6.8-9.6,13.9-18,19.1c-8.3,5.2-18.8,8.4-29.4,8.2
	c-10.7-0.2-21-3.7-29.2-9.1c-8.2-5.4-14.2-12.7-17.4-19.6C65.3,160.1,72.1,165.4,80.1,169.4z"/>
<path class="st5" d="M106.3,15.9c9,0,17.2,3,23.6,7.9c7.5,1.4,14.6,3.4,21.4,6.1c-0.8-1.2-1.7-2.3-2.6-3.4l-9.1-11.2
	C131.8,5.7,119.5,0,106.3,0S80.9,5.7,73,15.3l-9.1,11.2c-1.6,1.9-3,4-4.2,6.1c6.8-3.2,14-5.7,21.5-7.5
	C87.7,19.4,96.6,15.9,106.3,15.9z"/>
<path class="st5" d="M53.4,83.4c0,10.1,2.9,20,8.5,28.5l2.8,4.3l0.6-4.2l8.7,4.6c-1.4-1.6-2.6-3.3-3.8-5.1
	c-5.1-7.9-7.8-17.2-8.6-25.8c-0.8-8.7,0.3-16.9,2.2-23.6c-0.8,6.9-1,15,0.3,23.3c1.3,8.3,4.1,16.9,8.9,24.4
	c2.9,4.5,6.6,8.6,10.6,11.9l18.3,9.7c2.1,0.6,4.3,1,6.4,1.3l39.1-20.7l0.6,4.2l2.8-4.3c5.5-8.5,8.5-18.4,8.5-28.5V57.3
	c0-9.8-2.8-19.4-7.9-27.6c-6.8-2.9-14-5.2-21.4-6.7c8,6.7,13.1,16.8,13.1,28.1v1.8v2.2v1.8v1.7v3.1v4v19.1v4
	c0,9.8-4.3,19.1-11.7,25.4l-4.6,3.9c-5.7,4.9-13,7.6-20.5,7.6s-14.8-2.7-20.5-7.6l-4.6-3.9c-7.4-6.4-11.7-15.6-11.7-25.4v-4V65.6v-4
	v-3.1v-2.6v-0.8v-3.2v-0.8c0-10.5,4.4-20,11.5-26.7c-7.5,2-14.7,4.7-21.5,8.2c-4.1,7.6-6.2,16.1-6.2,24.8V83.4z M135.8,114.7
	c2-2.1,3.8-4.6,5.3-7.4c1.5-2.8,2.6-5.8,3.5-9c0.9-3.2,1.6-6.5,2.1-9.9c2-13.4,1-27.5,1.5-38.3c1.5,5.2,2.8,11.3,3.6,18
	c0.8,6.6,1,13.9-0.1,21.1c-0.5,3.6-1.4,7.2-2.6,10.6c-1.2,3.4-2.8,6.7-4.9,9.5c-2,2.9-4.5,5.3-7.1,7.1c-2.7,1.8-5.6,2.8-8.3,3.1
	C131.4,118.4,133.8,116.8,135.8,114.7z"/>
<path class="st5" d="M106.3,133.7l0.5-0.2c-0.3,0-0.7,0-1-0.1L106.3,133.7z"/>
<path class="st5" d="M101.9,131.4l-18.3-9.7c2.6,2.1,5.3,4,8.2,5.6C95.1,129.1,98.5,130.4,101.9,131.4z"/>
<path class="st5" d="M65.6,117.6c0,0.1,0,0.1,0,0.2l0.9,1.4c8.3,12.8,22.5,20.5,37.7,20.5h2.1h2.1c15.2,0,29.4-7.7,37.7-20.5l1.9-3
	l-0.6-4.2l-39.1,20.7c2,0.3,3.9,0.4,5.7,0.4c-2.3,0.4-4.7,0.5-7.2,0.4l-0.5,0.2l-0.6-0.3c-1-0.1-2-0.2-3-0.3
	c-4-0.6-8.1-1.8-12.1-3.6c-6.2-2.9-12-7.3-16.7-12.9l-8.7-4.6l-0.6,4.2L65.6,117.6C65.6,117.7,65.6,117.6,65.6,117.6z"/>
<path class="st5" d="M75,139.2c-4.8-6.8-7.8-14.4-9.4-21.4l0-0.1c-0.8,7.2,0.6,16,5,24.2c1.2,2.3,2.7,4.6,4.4,6.8h8.5
	C80.3,145.9,77.4,142.6,75,139.2z"/>
<path class="st6" d="M75,139.2c-4.8-6.8-7.8-14.4-9.4-21.4l0-0.1c-0.8,7.2,0.6,16,5,24.2c1.2,2.3,2.7,4.6,4.4,6.8h8.5
	C80.3,145.9,77.4,142.6,75,139.2z"/>
<path class="st5" d="M91.2,162.3c9.1,4.5,19.5,5.7,28.7,4.2c9.2-1.5,17.1-5.7,22.4-10.6c-6.6,3-14.5,5.2-22.9,5.5
	c-8.4,0.3-17.3-1.4-25.1-5.2c-3.9-2-7.5-4.5-10.8-7.4H75C79.2,154.2,84.7,159,91.2,162.3z"/>
<path class="st6" d="M91.2,162.3c9.1,4.5,19.5,5.7,28.7,4.2c9.2-1.5,17.1-5.7,22.4-10.6c-6.6,3-14.5,5.2-22.9,5.5
	c-8.4,0.3-17.3-1.4-25.1-5.2c-3.9-2-7.5-4.5-10.8-7.4H75C79.2,154.2,84.7,159,91.2,162.3z"/>
<path class="st5" d="M65.6,117.6C65.6,117.6,65.6,117.7,65.6,117.6l0,0.2C65.6,117.7,65.6,117.7,65.6,117.6z"/>
<path class="st6" d="M65.6,117.6C65.6,117.6,65.6,117.7,65.6,117.6l0,0.2C65.6,117.7,65.6,117.7,65.6,117.6z"/>
<path class="st5" d="M143.2,133c2.9-5.1,4.4-10.4,4.7-15c-1.7,4.3-4.2,8.9-7.4,13.2c-3.3,4.3-7.4,8.3-12.1,11.4
	c-4.2,2.7-8.8,4.8-13.4,6.1h11.4c1.5-0.7,3-1.6,4.4-2.5C136,142.8,140.3,138,143.2,133z"/>
<path class="st6" d="M143.2,133c2.9-5.1,4.4-10.4,4.7-15c-1.7,4.3-4.2,8.9-7.4,13.2c-3.3,4.3-7.4,8.3-12.1,11.4
	c-4.2,2.7-8.8,4.8-13.4,6.1h11.4c1.5-0.7,3-1.6,4.4-2.5C136,142.8,140.3,138,143.2,133z"/>
<path class="st5" d="M113.1,149.2c-5.2,1.3-10.4,1.7-15,1.7c4.3,1.5,9.8,2.2,15.6,1.6c4.2-0.5,8.6-1.7,12.7-3.7H115
	C114.4,148.9,113.7,149.1,113.1,149.2z"/>
<path class="st6" d="M113.1,149.2c-5.2,1.3-10.4,1.7-15,1.7c4.3,1.5,9.8,2.2,15.6,1.6c4.2-0.5,8.6-1.7,12.7-3.7H115
	C114.4,148.9,113.7,149.1,113.1,149.2z"/>
<path class="st5" d="M77.4,174.1c8.1,5.4,18.5,9,29.2,9.1c10.7,0.2,21.1-3.1,29.4-8.2c8.4-5.2,14.5-12.3,18-19.1
	c-5.5,5.4-12.4,10.6-20.6,14.3c-8.1,3.7-17.4,5.9-26.7,5.8c-9.3-0.2-18.5-2.6-26.5-6.6c-8.1-3.9-14.9-9.3-20.2-14.9
	C63.2,161.4,69.2,168.7,77.4,174.1z"/>
<path class="st6" d="M77.4,174.1c8.1,5.4,18.5,9,29.2,9.1c10.7,0.2,21.1-3.1,29.4-8.2c8.4-5.2,14.5-12.3,18-19.1
	c-5.5,5.4-12.4,10.6-20.6,14.3c-8.1,3.7-17.4,5.9-26.7,5.8c-9.3-0.2-18.5-2.6-26.5-6.6c-8.1-3.9-14.9-9.3-20.2-14.9
	C63.2,161.4,69.2,168.7,77.4,174.1z"/>
<path class="st5" d="M72.9,109.7c-4.8-7.5-7.6-16.1-8.9-24.4C62.8,77,63,69,63.8,62.1c-1.9,6.7-3,14.9-2.2,23.6
	c0.8,8.7,3.5,17.9,8.6,25.8c1.1,1.8,2.4,3.5,3.8,5.1l9.6,5.1C79.5,118.3,75.8,114.3,72.9,109.7z"/>
<path class="st6" d="M72.9,109.7c-4.8-7.5-7.6-16.1-8.9-24.4C62.8,77,63,69,63.8,62.1c-1.9,6.7-3,14.9-2.2,23.6
	c0.8,8.7,3.5,17.9,8.6,25.8c1.1,1.8,2.4,3.5,3.8,5.1l9.6,5.1C79.5,118.3,75.8,114.3,72.9,109.7z"/>
<path class="st5" d="M106.8,133.5l1.5-0.8c-2.1-0.3-4.2-0.7-6.4-1.3l3.9,2C106.1,133.4,106.5,133.5,106.8,133.5z"/>
<path class="st6" d="M106.8,133.5l1.5-0.8c-2.1-0.3-4.2-0.7-6.4-1.3l3.9,2C106.1,133.4,106.5,133.5,106.8,133.5z"/>
<path class="st5" d="M114,133.1c-1.8,0-3.8-0.1-5.7-0.4l-1.5,0.8C109.3,133.6,111.7,133.4,114,133.1z"/>
<path class="st6" d="M114,133.1c-1.8,0-3.8-0.1-5.7-0.4l-1.5,0.8C109.3,133.6,111.7,133.4,114,133.1z"/>
<path class="st5" d="M90.7,129.5c4,1.9,8.1,3.1,12.1,3.6c1,0.1,2,0.3,3,0.3l-3.9-2c-3.4-0.9-6.8-2.3-10.1-4.1
	c-2.9-1.6-5.6-3.4-8.2-5.6l-9.6-5.1C78.6,122.1,84.5,126.6,90.7,129.5z"/>
<path class="st6" d="M90.7,129.5c4,1.9,8.1,3.1,12.1,3.6c1,0.1,2,0.3,3,0.3l-3.9-2c-3.4-0.9-6.8-2.3-10.1-4.1
	c-2.9-1.6-5.6-3.4-8.2-5.6l-9.6-5.1C78.6,122.1,84.5,126.6,90.7,129.5z"/>
<path class="st5" d="M144.4,109.4c2-2.8,3.6-6.1,4.9-9.5c1.2-3.4,2-7,2.6-10.6c1.1-7.2,0.8-14.5,0.1-21.1c-0.8-6.7-2.2-12.8-3.6-18
	c-0.6,10.8,0.5,24.9-1.5,38.3c-0.5,3.4-1.2,6.7-2.1,9.9c-0.9,3.2-2.1,6.2-3.5,9c-1.4,2.8-3.2,5.3-5.3,7.4c-2.1,2.1-4.4,3.7-6.9,4.8
	c2.7-0.3,5.6-1.3,8.3-3.1C139.9,114.7,142.4,112.2,144.4,109.4z"/>
<path class="st6" d="M144.4,109.4c2-2.8,3.6-6.1,4.9-9.5c1.2-3.4,2-7,2.6-10.6c1.1-7.2,0.8-14.5,0.1-21.1c-0.8-6.7-2.2-12.8-3.6-18
	c-0.6,10.8,0.5,24.9-1.5,38.3c-0.5,3.4-1.2,6.7-2.1,9.9c-0.9,3.2-2.1,6.2-3.5,9c-1.4,2.8-3.2,5.3-5.3,7.4c-2.1,2.1-4.4,3.7-6.9,4.8
	c2.7-0.3,5.6-1.3,8.3-3.1C139.9,114.7,142.4,112.2,144.4,109.4z"/>
<path class="st7" d="M81.2,24.4c2.7-0.7,5.4-1.3,8.1-1.8c5.1-2.7,10.9-4.2,17.1-4.2h0c5.1,0,9.9,1,14.3,2.9c0.3,0.1,0.5,0.2,0.8,0.4
	c2.9,0.3,5.7,0.8,8.5,1.3c-6.4-5.4-14.6-8.6-23.6-8.6C96.6,14.4,87.7,18.2,81.2,24.4z"/>
<path class="st7" d="M74.9,36c0.3-0.5,0.6-1,1-1.5c1-1.5,2.1-2.9,3.3-4.2c0.4-0.4,0.8-0.9,1.2-1.3c2.6-2.6,5.6-4.8,8.9-6.5
	c-2.7,0.5-5.4,1.1-8.1,1.8c-7.1,6.7-11.5,16.2-11.5,26.7v0.8v3.2c0-1.3,0.1-2.5,0.2-3.8C70.4,45.8,72.2,40.6,74.9,36z"/>
<path class="st7" d="M126.9,24.6c2,1.3,3.8,2.8,5.4,4.5c0.4,0.4,0.8,0.8,1.2,1.3c1.2,1.3,2.3,2.7,3.3,4.2c0.3,0.5,0.6,1,1,1.5
	c2.8,4.5,4.6,9.7,5.1,15.3c0.1,1.2,0.2,2.5,0.2,3.8v-2.2v-1.8c0-11.3-5.1-21.4-13.1-28.1c-2.8-0.6-5.6-1-8.5-1.3
	C123.3,22.5,125.1,23.5,126.9,24.6z"/>
<path class="st8" d="M131.4,110.2l-4.6,3.9c-5.7,4.9-13,7.6-20.5,7.6s-14.8-2.7-20.5-7.6l-4.6-3.9c-7.4-6.4-11.7-15.6-11.7-25.4v4
	c0,9.8,4.3,19.1,11.7,25.4l4.6,3.9c5.7,4.9,13,7.6,20.5,7.6s14.8-2.7,20.5-7.6l4.6-3.9c7.4-6.4,11.7-15.6,11.7-25.4v-4
	C143,94.5,138.8,103.8,131.4,110.2z"/>
<path class="st8" d="M115.9,34.8c-6.3-1.6-12.8-1.6-19.1,0c-9.4,2.4-17.4,8.3-22.6,16.5l-4.6,7.2v3.1v4v19.1
	c0,9.8,4.3,19.1,11.7,25.4l4.6,3.9c5.7,4.9,13,7.6,20.5,7.6s14.8-2.7,20.5-7.6l4.6-3.9c7.4-6.4,11.7-15.6,11.7-25.4V65.6v-4v-3.1
	l-4.6-7.2C133.3,43.1,125.2,37.2,115.9,34.8z M112.3,100.7c-1.8,2.3-3.8,3.6-6.1,3.7c-0.5,0-0.9,0-1.3,0c-3.3-0.4-5.7-2.9-5.8-3
	c-0.4-0.4-0.4-1,0-1.4c0.4-0.4,1-0.4,1.4,0c0,0,2.6,2.6,5.6,2.4c1.7-0.1,3.3-1.1,4.7-2.9c0.3-0.4,0.9-0.5,1.4-0.2
	C112.5,99.7,112.6,100.3,112.3,100.7z"/>
<path d="M110.7,99.6c-1.4,1.8-3,2.8-4.7,2.9c-3,0.2-5.6-2.4-5.6-2.4c-0.4-0.4-1-0.4-1.4,0c-0.4,0.4-0.4,1,0,1.4
	c0.1,0.1,2.5,2.6,5.8,3c0.4,0.1,0.9,0.1,1.3,0c2.3-0.1,4.3-1.4,6.1-3.7c0.3-0.4,0.2-1-0.2-1.4C111.7,99.1,111.1,99.2,110.7,99.6z"/>
<path class="st3" d="M106.3,18.4L106.3,18.4c-6.2,0-12,1.5-17.1,4.2c0,0,0,0,0,0C94.4,19.9,100.2,18.4,106.3,18.4z"/>
<path class="st3" d="M121.4,21.6c-0.3-0.1-0.5-0.3-0.8-0.4C120.9,21.4,121.2,21.5,121.4,21.6C121.4,21.6,121.4,21.6,121.4,21.6z"/>
<path class="st3" d="M137.7,36c2.8,4.5,4.6,9.7,5.1,15.3C142.3,45.8,140.5,40.6,137.7,36z"/>
<path class="st3" d="M89.3,22.6C89.3,22.6,89.3,22.6,89.3,22.6c-3.3,1.7-6.3,3.9-8.9,6.5C83,26.5,86,24.3,89.3,22.6z"/>
<path class="st3" d="M79.2,30.4c-1.2,1.3-2.3,2.7-3.3,4.2C76.9,33.1,78,31.7,79.2,30.4z"/>
<path class="st3" d="M74.9,36c-2.8,4.5-4.6,9.7-5.1,15.3C70.4,45.8,72.2,40.6,74.9,36z"/>
<path class="st3" d="M126.9,24.6c-1.7-1.2-3.5-2.2-5.4-3c0,0,0,0,0,0C123.3,22.5,125.1,23.5,126.9,24.6z"/>
<path class="st3" d="M133.5,30.4c1.2,1.3,2.3,2.7,3.3,4.2C135.8,33.1,134.7,31.7,133.5,30.4z"/>
<path class="st3" d="M126.9,24.6c2,1.3,3.8,2.8,5.4,4.5C130.6,27.5,128.8,26,126.9,24.6z"/>
<path class="st3" d="M108.6,20.9c4.4,0,8.6,0.3,12.9,0.8c-0.3-0.1-0.5-0.3-0.8-0.4c-4.4-1.9-9.2-2.9-14.3-2.9
	c-6.2,0-12,1.5-17.1,4.2C95.5,21.5,102,20.9,108.6,20.9z"/>
<path class="st3" d="M137.7,36c-0.3-0.5-0.6-1-1-1.5c-1-1.5-2.1-2.9-3.3-4.2c-0.4-0.4-0.8-0.9-1.2-1.3c-1.7-1.7-3.5-3.2-5.4-4.5
	c-1.7-1.2-3.5-2.2-5.4-3c-4.2-0.5-8.5-0.8-12.9-0.8c-6.6,0-13.1,0.6-19.3,1.7c-3.3,1.7-6.3,3.9-8.9,6.5c-0.4,0.4-0.8,0.8-1.2,1.3
	c-1.2,1.3-2.3,2.7-3.3,4.2c-0.3,0.5-0.6,1-1,1.5c-2.8,4.5-4.6,9.7-5.1,15.3c-0.1,1.2-0.2,2.5-0.2,3.8v0.8v2.6l4.6-7.2
	c5.2-8.2,13.3-14.1,22.6-16.5c6.3-1.6,12.8-1.6,19.1,0c9.4,2.4,17.4,8.3,22.6,16.5l4.6,7.2v-1.7v-1.8c0-1.3-0.1-2.5-0.2-3.8
	C142.3,45.8,140.5,40.6,137.7,36z"/>
<path class="st3" d="M34.4,208.1c-0.8-11.3-2.4-22.6-4.8-33.7l-1.2-5.5l-4.1-11.1c-5.1,2.7-8.9,7.3-10.5,12.9l-2,7
	C17.4,189.1,25.1,199.4,34.4,208.1z"/>
<polygon class="st2" points="28.4,168.9 28.4,168.9 34.5,185.2 "/>
<polygon class="st4" points="28.4,168.9 28.4,168.9 34.5,185.2 "/>
<path class="st3" d="M38.8,211.5c0-0.8,0-1.7,0-2.5c0-4-0.4-8.1-1.1-12c-0.7-4-1.8-7.9-3.2-11.7l-6.1-16.3l1.2,5.5
	c2.4,11.1,4,22.4,4.8,33.7c1.4,1.3,2.9,2.6,4.4,3.9C38.7,211.8,38.7,211.6,38.8,211.5z"/>
<path class="st4" d="M38.8,211.5c0-0.8,0-1.7,0-2.5c0-4-0.4-8.1-1.1-12c-0.7-4-1.8-7.9-3.2-11.7l-6.1-16.3l1.2,5.5
	c2.4,11.1,4,22.4,4.8,33.7c1.4,1.3,2.9,2.6,4.4,3.9C38.7,211.8,38.7,211.6,38.8,211.5z"/>
<path class="st3" d="M38.7,212L38.7,212c0-0.2,0-0.3,0-0.5C38.7,211.6,38.7,211.8,38.7,212z"/>
<path class="st4" d="M38.7,212L38.7,212c0-0.2,0-0.3,0-0.5C38.7,211.6,38.7,211.8,38.7,212z"/>
<path class="st3" d="M188.4,157.8l-4.1,11.1l-1.2,5.5c-2.7,12.5-4.4,25.2-5,37.9c9.8-8.2,18.1-18,24.5-29.2l-3.6-12.5
	C197.3,165.1,193.5,160.5,188.4,157.8z"/>
<polygon class="st3" points="184.3,168.9 184.3,168.9 188.4,157.8 188.4,157.8 "/>
<polygon class="st2" points="178.2,185.2 181,177.7 180.7,178.5 "/>
<polygon class="st4" points="178.2,185.2 181,177.7 180.7,178.5 "/>
<polygon class="st3" points="184.3,168.9 180.7,178.5 181,177.7 184.3,168.9 "/>
<polygon class="st4" points="184.3,168.9 180.7,178.5 181,177.7 184.3,168.9 "/>
<path class="st3" d="M184.3,168.9l-3.3,8.9l-2.8,7.5c-1.1,3.1-2.1,6.2-2.7,9.3c-1,4.7-1.6,9.6-1.6,14.4c0,1.6,0.1,3.2,0.2,4.8
	c0,0.5,0.1,1.1,0.1,1.6c1.3-1,2.6-2,3.9-3.1c0.7-12.7,2.4-25.4,5-37.9L184.3,168.9z"/>
<path class="st4" d="M184.3,168.9l-3.3,8.9l-2.8,7.5c-1.1,3.1-2.1,6.2-2.7,9.3c-1,4.7-1.6,9.6-1.6,14.4c0,1.6,0.1,3.2,0.2,4.8
	c0,0.5,0.1,1.1,0.1,1.6c1.3-1,2.6-2,3.9-3.1c0.7-12.7,2.4-25.4,5-37.9L184.3,168.9z"/>
<polygon class="st3" points="181,177.7 184.3,168.9 184.3,168.9 "/>
<polygon class="st4" points="181,177.7 184.3,168.9 184.3,168.9 "/>
<path d="M126.3,70.5c0.7,0,1.4,0.2,2,0.5c1.2-0.2,3-0.8,4.3-2.3c0,0-0.7,2.3-3,3.5c0.2,0.2,0.4,0.5,0.5,0.8c1.2-0.1,2.7-0.4,4-1.4
	c0,0-1.1,2.1-3.5,2.9c0,0.2,0.1,0.5,0.1,0.8c0,2.6-2,4.7-4.4,4.7c-2.4,0-4.4-2.1-4.4-4.7C121.9,72.6,123.8,70.5,126.3,70.5z"/>
<circle class="st9" cx="124.9" cy="73.9" r="1.7"/>
<path d="M86.7,70.5c-0.7,0-1.4,0.2-2,0.5c-1.2-0.2-3-0.8-4.3-2.3c0,0,0.7,2.3,3,3.5c-0.2,0.2-0.4,0.5-0.5,0.8
	c-1.2-0.1-2.7-0.4-4-1.4c0,0,1.1,2.1,3.5,2.9c0,0.2-0.1,0.5-0.1,0.8c0,2.6,2,4.7,4.4,4.7s4.4-2.1,4.4-4.7
	C91.1,72.6,89.2,70.5,86.7,70.5z"/>
<circle class="st9" cx="88.1" cy="73.9" r="1.7"/>
<ellipse class="st10" cx="132.9" cy="83.1" rx="4.6" ry="4.1"/>
<ellipse class="st10" cx="78.9" cy="83.1" rx="4.6" ry="4.1"/>
<g>
	<path d="M80.2,61.9c-3,1.3-4.7,4.3-4.8,4.4c-0.3,0.5-0.1,1.1,0.4,1.3c0.5,0.3,1.1,0.1,1.3-0.4c0,0,1.8-3.3,4.8-3.9
		c1.7-0.4,3.4,0.2,5.3,1.6c0.4,0.3,1,0.2,1.4-0.2c0.3-0.4,0.2-1-0.2-1.4c-2.3-1.7-4.6-2.4-6.9-1.9C81,61.6,80.6,61.7,80.2,61.9z"/>
</g>
<g>
	<path d="M129.8,61.9c3,1.3,4.7,4.3,4.8,4.4c0.3,0.5,0.1,1.1-0.4,1.3c-0.5,0.3-1.1,0.1-1.3-0.4c0,0-1.8-3.3-4.8-3.9
		c-1.7-0.4-3.4,0.2-5.3,1.6c-0.4,0.3-1,0.2-1.4-0.2c-0.3-0.4-0.2-1,0.2-1.4c2.3-1.7,4.6-2.4,6.9-1.9C129,61.6,129.4,61.7,129.8,61.9
		z"/>
</g>
<path class="st4" d="M126.2,192c9.8-2.1,19.5-5,27.1-7.2c-6.5,4.5-16.1,8.7-26.3,10.8c-10.1,2.2-20.7,2.3-28.4,0.9
	C106.4,195.5,116.4,194.2,126.2,192z"/>
</svg>
