<?xml version="1.0" encoding="utf-8"?>
<!-- Generator: Adobe Illustrator 23.0.4, SVG Export Plug-In . SVG Version: 6.00 Build 0)  -->
<svg version="1.1" id="Layer_1" xmlns="http://www.w3.org/2000/svg" xmlns:xlink="http://www.w3.org/1999/xlink" x="0px" y="0px"
	 viewBox="0 0 40 48" style="enable-background:new 0 0 40 48;" xml:space="preserve">
<style type="text/css">
	.st0{fill-rule:evenodd;clip-rule:evenodd;fill:#FA7C91;}
</style>
<title>mentor</title>
<desc>Created with Sketch.</desc>
<g id="Website">
	<path id="mentor" class="st0" d="M37.2,36H4.8c-0.9,0-1.7,0.3-2.4,0.7V4.8c0-1.3,1.1-2.4,2.4-2.4h32.4V36z M37.2,40.8H8.4v2.4h28.8
		v2.4H4.8c-0.9,0-1.7-0.5-2.1-1.2c-0.2-0.3-0.3-0.7-0.3-1.2v-2.4c0-1.3,1.1-2.4,2.4-2.4h32.4V40.8z M39.6,0v48H4.8
		c-1.9,0-3.6-1.1-4.3-2.8c-0.3-0.6-0.5-1.3-0.5-2l0,0V4.8C0,2.1,2.2,0,4.8,0l0,0H39.6z M19.2,9.9l-6,3.6C12.4,14,12,14.8,12,15.6
		v7.2c0,0.8,0.4,1.6,1.2,2.1l6,3.6c0.8,0.5,1.7,0.5,2.5,0l6-3.6c0.7-0.4,1.2-1.2,1.2-2.1v-7.2c0-0.8-0.4-1.6-1.2-2.1l-6-3.6
		C20.9,9.5,19.9,9.5,19.2,9.9z M20.4,12l6,3.6v7.2l-6,3.6l-6-3.6v-7.2L20.4,12z"/>
</g>
</svg>
